<svg xmlns="http://www.w3.org/2000/svg" enable-background="new 0 0 64 64" viewBox="0 0 64 64" id="creating-shared-value"><path d="M38.75 20.65c.01-.12.01-.25.01-.38 0-3.44-3.03-6.24-6.76-6.24s-6.76 2.8-6.76 6.24c0 .13 0 .25.01.38.04.46.41.82.88.82h11.75C38.34 21.47 38.72 21.11 38.75 20.65zM32 13.58c1.92 0 3.48-1.56 3.48-3.47 0-1.92-1.56-3.48-3.48-3.48s-3.48 1.56-3.48 3.48C28.52 12.02 30.08 13.58 32 13.58z"></path><path d="M50.11,35.9c-1.83,0-3.57,0.35-5.18,0.99c0,0,0,0,0,0l-5.51-10.92c3.98-2.48,6.63-6.9,6.63-11.92C46.05,6.31,39.75,0,32,0
		S17.95,6.31,17.95,14.05c0,5.02,2.66,9.44,6.63,11.93l-5.5,10.91c-1.6-0.65-3.36-0.99-5.18-0.99c-7.75,0-14.05,6.31-14.05,14.05
		C-0.16,57.7,6.15,64,13.89,64c7.32,0,13.36-5.63,13.99-12.8v0h8.23v0C36.75,58.37,42.79,64,50.11,64c7.75,0,14.05-6.3,14.05-14.05
		C64.16,42.2,57.85,35.9,50.11,35.9z M20.46,14.05c0-6.36,5.18-11.54,11.54-11.54c6.36,0,11.54,5.18,11.54,11.54
		c0,4.49-2.58,8.39-6.34,10.3c-1.56,0.79-3.33,1.24-5.21,1.24s-3.63-0.44-5.2-1.24C23.05,22.45,20.46,18.55,20.46,14.05z
		 M13.89,61.49c-6.36,0-11.54-5.18-11.54-11.54s5.18-11.54,11.54-11.54c1.86,0,3.63,0.44,5.2,1.24c3.77,1.91,6.34,5.81,6.34,10.3
		C25.43,56.31,20.26,61.49,13.89,61.49z M36.11,48.69h-8.23v0c-0.4-4.5-2.93-8.4-6.57-10.67l5.5-10.91c1.6,0.64,3.36,0.98,5.18,0.98
		c1.83,0,3.58-0.35,5.19-0.99c0,0,0,0,0,0l5.5,10.91C39.05,40.29,36.51,44.19,36.11,48.69L36.11,48.69z M50.11,61.49
		c-6.36,0-11.53-5.17-11.54-11.52c0-0.01,0-0.01,0-0.02c0-0.01,0-0.01,0-0.02c0.01-4.48,2.58-8.38,6.34-10.29c0,0,0,0,0,0
		c0,0,0,0,0,0c1.56-0.79,3.33-1.24,5.2-1.24c6.36,0,11.54,5.18,11.54,11.54S56.47,61.49,50.11,61.49z"></path><path d="M19.08 43.34H8.7c-1.4 0-2.54 1.15-2.54 2.54v5.65c0 1.15.93 2.05 1.98 2.4l.11 1.77c.02.37.26.69.62.81.09.04.19.05.29.05.25 0 .51-.11.68-.31l1.88-2.18h7.35c1.4 0 2.54-1.14 2.54-2.54v-5.65C21.62 44.49 20.48 43.34 19.08 43.34zM9.37 47.56c0-.51.41-.91.91-.91h7.22c.5 0 .91.4.91.91 0 .5-.41.91-.91.91h-7.22C9.78 48.47 9.37 48.06 9.37 47.56zM17.62 50.96h-7.04c-.51 0-.91-.41-.91-.91 0-.5.4-.91.91-.91h7.04c.5 0 .91.41.91.91C18.53 50.55 18.12 50.96 17.62 50.96zM56.13 48.7l-.21-.65c-.09-.28-.21-.57-.36-.87l-.31-.61c-.14-.28-.09-.6.12-.82l.73-.74-1.08-1.08-.74.74c-.13.13-.3.2-.48.2-.11 0-.23-.03-.33-.08l-.61-.31c-.26-.13-.55-.25-.86-.35l-.66-.22c-.28-.09-.48-.36-.48-.67v-1.03h-1.52v1.03c0 .3-.2.58-.49.67l-.65.22c-.31.1-.6.22-.87.35l-.61.31c-.1.05-.22.08-.33.08-.19 0-.36-.07-.49-.2l-.73-.73-1.08 1.08.73.73c.21.22.26.54.13.82l-.31.62c-.12.25-.26.55-.34.85l-.22.67c-.09.28-.36.48-.67.48h-1.03v1.52h1.03c.3 0 .58.2.67.49l.22.65c.08.26.19.55.35.86l.31.62c.14.27.09.6-.12.81l-.74.72 1.08 1.08.73-.73c.13-.13.31-.2.5-.2.11 0 .22.03.32.07l.61.31c.27.14.55.26.86.36l.66.21c.29.1.49.37.49.67v1.04h1.52v-1.04c0-.3.2-.57.48-.67l.67-.21c.34-.11.62-.23.85-.36l.61-.31c.1-.05.21-.08.32-.08.19 0 .36.07.5.21l.73.72 1.08-1.08-.73-.72c-.21-.22-.26-.55-.13-.82l.31-.62c.16-.32.27-.59.36-.86l.21-.66c.1-.29.37-.49.67-.49h1.03v-1.52H56.8C56.5 49.19 56.23 48.99 56.13 48.7zM52.86 52.71c-.73.73-1.71 1.14-2.75 1.14s-2.01-.4-2.75-1.14c-1.52-1.52-1.52-3.99 0-5.5.73-.73 1.71-1.14 2.75-1.14 1.05 0 2.02.4 2.75 1.14C54.37 48.72 54.37 51.19 52.86 52.71z"></path><path d="M50.11,47.77c-0.58,0-1.13,0.22-1.55,0.63c-0.43,0.42-0.64,0.98-0.64,1.55c0,0.56,0.21,1.12,0.64,1.55
		c0.85,0.85,2.24,0.85,3.09,0c0.85-0.85,0.85-2.24,0-3.09C51.24,47.99,50.69,47.77,50.11,47.77z"></path></svg>