<svg width="1120" height="412" viewBox="0 0 1120 412" fill="none" xmlns="http://www.w3.org/2000/svg">
<path fill-rule="evenodd" clip-rule="evenodd" d="M1040 192H1080C1099.88 192 1116 208.118 1116 228V340C1116 359.882 1099.88 376 1080 376H112C92.1437 376 76.0422 359.924 76 340.078H72C72.0422 362.134 89.9346 380 112 380H1080C1102.09 380 1120 362.091 1120 340V228C1120 205.909 1102.09 188 1080 188H1040V192Z" fill="url(#paint0_linear_1765_2204)"/>
<path d="M41.9706 45V32.4H44.8866V45H41.9706ZM51.8368 45.144C50.9248 45.144 50.1028 44.94 49.3708 44.532C48.6388 44.112 48.0568 43.53 47.6248 42.786C47.2048 42.042 46.9948 41.166 46.9948 40.158C46.9948 39.138 47.2048 38.256 47.6248 37.512C48.0568 36.768 48.6388 36.192 49.3708 35.784C50.1028 35.376 50.9248 35.172 51.8368 35.172C52.6528 35.172 53.3668 35.352 53.9788 35.712C54.5908 36.072 55.0648 36.618 55.4008 37.35C55.7368 38.082 55.9048 39.018 55.9048 40.158C55.9048 41.286 55.7428 42.222 55.4188 42.966C55.0948 43.698 54.6268 44.244 54.0148 44.604C53.4148 44.964 52.6888 45.144 51.8368 45.144ZM52.3228 42.84C52.7788 42.84 53.1928 42.732 53.5648 42.516C53.9368 42.3 54.2308 41.994 54.4468 41.598C54.6748 41.19 54.7888 40.71 54.7888 40.158C54.7888 39.594 54.6748 39.114 54.4468 38.718C54.2308 38.322 53.9368 38.016 53.5648 37.8C53.1928 37.584 52.7788 37.476 52.3228 37.476C51.8548 37.476 51.4348 37.584 51.0628 37.8C50.6908 38.016 50.3908 38.322 50.1628 38.718C49.9468 39.114 49.8388 39.594 49.8388 40.158C49.8388 40.71 49.9468 41.19 50.1628 41.598C50.3908 41.994 50.6908 42.3 51.0628 42.516C51.4348 42.732 51.8548 42.84 52.3228 42.84ZM54.8608 45V43.02L54.9148 40.14L54.7348 37.278V31.644H57.5428V45H54.8608ZM64.9477 45.144C63.8437 45.144 62.8717 44.928 62.0317 44.496C61.2037 44.064 60.5617 43.476 60.1057 42.732C59.6497 41.976 59.4217 41.118 59.4217 40.158C59.4217 39.186 59.6437 38.328 60.0877 37.584C60.5437 36.828 61.1617 36.24 61.9417 35.82C62.7217 35.388 63.6037 35.172 64.5877 35.172C65.5357 35.172 66.3877 35.376 67.1437 35.784C67.9117 36.18 68.5177 36.756 68.9617 37.512C69.4057 38.256 69.6277 39.15 69.6277 40.194C69.6277 40.302 69.6217 40.428 69.6097 40.572C69.5977 40.704 69.5857 40.83 69.5737 40.95H61.7077V39.312H68.0977L67.0177 39.798C67.0177 39.294 66.9157 38.856 66.7117 38.484C66.5077 38.112 66.2257 37.824 65.8657 37.62C65.5057 37.404 65.0857 37.296 64.6057 37.296C64.1257 37.296 63.6997 37.404 63.3277 37.62C62.9677 37.824 62.6857 38.118 62.4817 38.502C62.2777 38.874 62.1757 39.318 62.1757 39.834V40.266C62.1757 40.794 62.2897 41.262 62.5177 41.67C62.7577 42.066 63.0877 42.372 63.5077 42.588C63.9397 42.792 64.4437 42.894 65.0197 42.894C65.5357 42.894 65.9857 42.816 66.3697 42.66C66.7657 42.504 67.1257 42.27 67.4497 41.958L68.9437 43.578C68.4997 44.082 67.9417 44.472 67.2697 44.748C66.5977 45.012 65.8237 45.144 64.9477 45.144ZM77.1735 45V43.11L76.9935 42.696V39.312C76.9935 38.712 76.8075 38.244 76.4355 37.908C76.0755 37.572 75.5175 37.404 74.7615 37.404C74.2455 37.404 73.7355 37.488 73.2315 37.656C72.7395 37.812 72.3195 38.028 71.9715 38.304L70.9635 36.342C71.4915 35.97 72.1275 35.682 72.8715 35.478C73.6155 35.274 74.3715 35.172 75.1395 35.172C76.6155 35.172 77.7615 35.52 78.5775 36.216C79.3935 36.912 79.8015 37.998 79.8015 39.474V45H77.1735ZM74.2215 45.144C73.4655 45.144 72.8175 45.018 72.2775 44.766C71.7375 44.502 71.3235 44.148 71.0355 43.704C70.7475 43.26 70.6035 42.762 70.6035 42.21C70.6035 41.634 70.7415 41.13 71.0175 40.698C71.3055 40.266 71.7555 39.93 72.3675 39.69C72.9795 39.438 73.7775 39.312 74.7615 39.312H77.3355V40.95H75.0675C74.4075 40.95 73.9515 41.058 73.6995 41.274C73.4595 41.49 73.3395 41.76 73.3395 42.084C73.3395 42.444 73.4775 42.732 73.7535 42.948C74.0415 43.152 74.4315 43.254 74.9235 43.254C75.3915 43.254 75.8115 43.146 76.1835 42.93C76.5555 42.702 76.8255 42.372 76.9935 41.94L77.4255 43.236C77.2215 43.86 76.8495 44.334 76.3095 44.658C75.7695 44.982 75.0735 45.144 74.2215 45.144ZM86.3029 45.144C85.1629 45.144 84.2749 44.856 83.6389 44.28C83.0029 43.692 82.6849 42.822 82.6849 41.67V33.174H85.4929V41.634C85.4929 42.042 85.6009 42.36 85.8169 42.588C86.0329 42.804 86.3269 42.912 86.6989 42.912C87.1429 42.912 87.5209 42.792 87.8329 42.552L88.5889 44.532C88.3009 44.736 87.9529 44.892 87.5449 45C87.1489 45.096 86.7349 45.144 86.3029 45.144ZM81.1909 37.692V35.532H87.9049V37.692H81.1909ZM90.1651 45V35.316H92.9731V45H90.1651ZM91.5691 33.966C91.0531 33.966 90.6331 33.816 90.3091 33.516C89.9851 33.216 89.8231 32.844 89.8231 32.4C89.8231 31.956 89.9851 31.584 90.3091 31.284C90.6331 30.984 91.0531 30.834 91.5691 30.834C92.0851 30.834 92.5051 30.978 92.8291 31.266C93.1531 31.542 93.3151 31.902 93.3151 32.346C93.3151 32.814 93.1531 33.204 92.8291 33.516C92.5171 33.816 92.0971 33.966 91.5691 33.966ZM100.187 45.144C99.1552 45.144 98.2372 44.928 97.4332 44.496C96.6412 44.064 96.0112 43.476 95.5432 42.732C95.0872 41.976 94.8592 41.118 94.8592 40.158C94.8592 39.186 95.0872 38.328 95.5432 37.584C96.0112 36.828 96.6412 36.24 97.4332 35.82C98.2372 35.388 99.1552 35.172 100.187 35.172C101.207 35.172 102.119 35.388 102.923 35.82C103.727 36.24 104.357 36.822 104.813 37.566C105.269 38.31 105.497 39.174 105.497 40.158C105.497 41.118 105.269 41.976 104.813 42.732C104.357 43.476 103.727 44.064 102.923 44.496C102.119 44.928 101.207 45.144 100.187 45.144ZM100.187 42.84C100.655 42.84 101.075 42.732 101.447 42.516C101.819 42.3 102.113 41.994 102.329 41.598C102.545 41.19 102.653 40.71 102.653 40.158C102.653 39.594 102.545 39.114 102.329 38.718C102.113 38.322 101.819 38.016 101.447 37.8C101.075 37.584 100.655 37.476 100.187 37.476C99.7192 37.476 99.2992 37.584 98.9272 37.8C98.5552 38.016 98.2552 38.322 98.0272 38.718C97.8112 39.114 97.7032 39.594 97.7032 40.158C97.7032 40.71 97.8112 41.19 98.0272 41.598C98.2552 41.994 98.5552 42.3 98.9272 42.516C99.2992 42.732 99.7192 42.84 100.187 42.84ZM113.26 35.172C114.028 35.172 114.712 35.328 115.312 35.64C115.924 35.94 116.404 36.408 116.752 37.044C117.1 37.668 117.274 38.472 117.274 39.456V45H114.466V39.888C114.466 39.108 114.292 38.532 113.944 38.16C113.608 37.788 113.128 37.602 112.504 37.602C112.06 37.602 111.658 37.698 111.298 37.89C110.95 38.07 110.674 38.352 110.47 38.736C110.278 39.12 110.182 39.612 110.182 40.212V45H107.374V35.316H110.056V37.998L109.552 37.188C109.9 36.54 110.398 36.042 111.046 35.694C111.694 35.346 112.432 35.172 113.26 35.172Z" fill="#5DC792"/>
<path d="M49.9872 161V148.4H55.4412C56.5692 148.4 57.5412 148.586 58.3572 148.958C59.1732 149.318 59.8032 149.84 60.2472 150.524C60.6912 151.208 60.9132 152.024 60.9132 152.972C60.9132 153.908 60.6912 154.718 60.2472 155.402C59.8032 156.074 59.1732 156.59 58.3572 156.95C57.5412 157.31 56.5692 157.49 55.4412 157.49H51.6072L52.9032 156.212V161H49.9872ZM57.9972 161L54.8472 156.428H57.9612L61.1472 161H57.9972ZM52.9032 156.536L51.6072 155.168H55.2792C56.1792 155.168 56.8512 154.976 57.2952 154.592C57.7392 154.196 57.9612 153.656 57.9612 152.972C57.9612 152.276 57.7392 151.736 57.2952 151.352C56.8512 150.968 56.1792 150.776 55.2792 150.776H51.6072L52.9032 149.39V156.536ZM67.8315 161.144C66.7275 161.144 65.7555 160.928 64.9155 160.496C64.0875 160.064 63.4455 159.476 62.9895 158.732C62.5335 157.976 62.3055 157.118 62.3055 156.158C62.3055 155.186 62.5275 154.328 62.9715 153.584C63.4275 152.828 64.0455 152.24 64.8255 151.82C65.6055 151.388 66.4875 151.172 67.4715 151.172C68.4195 151.172 69.2715 151.376 70.0275 151.784C70.7955 152.18 71.4015 152.756 71.8455 153.512C72.2895 154.256 72.5115 155.15 72.5115 156.194C72.5115 156.302 72.5055 156.428 72.4935 156.572C72.4815 156.704 72.4695 156.83 72.4575 156.95H64.5915V155.312H70.9815L69.9015 155.798C69.9015 155.294 69.7995 154.856 69.5955 154.484C69.3915 154.112 69.1095 153.824 68.7495 153.62C68.3895 153.404 67.9695 153.296 67.4895 153.296C67.0095 153.296 66.5835 153.404 66.2115 153.62C65.8515 153.824 65.5695 154.118 65.3655 154.502C65.1615 154.874 65.0595 155.318 65.0595 155.834V156.266C65.0595 156.794 65.1735 157.262 65.4015 157.67C65.6415 158.066 65.9715 158.372 66.3915 158.588C66.8235 158.792 67.3275 158.894 67.9035 158.894C68.4195 158.894 68.8695 158.816 69.2535 158.66C69.6495 158.504 70.0095 158.27 70.3335 157.958L71.8275 159.578C71.3835 160.082 70.8255 160.472 70.1535 160.748C69.4815 161.012 68.7075 161.144 67.8315 161.144ZM74.723 161V151.1C74.723 150.008 75.047 149.138 75.695 148.49C76.343 147.83 77.267 147.5 78.467 147.5C78.875 147.5 79.265 147.542 79.637 147.626C80.021 147.71 80.345 147.842 80.609 148.022L79.871 150.056C79.715 149.948 79.541 149.864 79.349 149.804C79.157 149.744 78.953 149.714 78.737 149.714C78.329 149.714 78.011 149.834 77.783 150.074C77.567 150.302 77.459 150.65 77.459 151.118V152.018L77.531 153.224V161H74.723ZM73.229 153.692V151.532H79.943V153.692H73.229ZM81.527 161V151.316H84.335V161H81.527ZM82.931 149.966C82.415 149.966 81.995 149.816 81.671 149.516C81.347 149.216 81.185 148.844 81.185 148.4C81.185 147.956 81.347 147.584 81.671 147.284C81.995 146.984 82.415 146.834 82.931 146.834C83.447 146.834 83.867 146.978 84.191 147.266C84.515 147.542 84.677 147.902 84.677 148.346C84.677 148.814 84.515 149.204 84.191 149.516C83.879 149.816 83.459 149.966 82.931 149.966ZM92.8177 151.172C93.5857 151.172 94.2697 151.328 94.8697 151.64C95.4817 151.94 95.9617 152.408 96.3097 153.044C96.6577 153.668 96.8317 154.472 96.8317 155.456V161H94.0237V155.888C94.0237 155.108 93.8497 154.532 93.5017 154.16C93.1657 153.788 92.6857 153.602 92.0617 153.602C91.6177 153.602 91.2157 153.698 90.8557 153.89C90.5077 154.07 90.2317 154.352 90.0277 154.736C89.8357 155.12 89.7397 155.612 89.7397 156.212V161H86.9317V151.316H89.6137V153.998L89.1097 153.188C89.4577 152.54 89.9557 152.042 90.6037 151.694C91.2517 151.346 91.9897 151.172 92.8177 151.172ZM104.253 161.144C103.149 161.144 102.177 160.928 101.337 160.496C100.509 160.064 99.8674 159.476 99.4114 158.732C98.9554 157.976 98.7274 157.118 98.7274 156.158C98.7274 155.186 98.9494 154.328 99.3934 153.584C99.8494 152.828 100.467 152.24 101.247 151.82C102.027 151.388 102.909 151.172 103.893 151.172C104.841 151.172 105.693 151.376 106.449 151.784C107.217 152.18 107.823 152.756 108.267 153.512C108.711 154.256 108.933 155.15 108.933 156.194C108.933 156.302 108.927 156.428 108.915 156.572C108.903 156.704 108.891 156.83 108.879 156.95H101.013V155.312H107.403L106.323 155.798C106.323 155.294 106.221 154.856 106.017 154.484C105.813 154.112 105.531 153.824 105.171 153.62C104.811 153.404 104.391 153.296 103.911 153.296C103.431 153.296 103.005 153.404 102.633 153.62C102.273 153.824 101.991 154.118 101.787 154.502C101.583 154.874 101.481 155.318 101.481 155.834V156.266C101.481 156.794 101.595 157.262 101.823 157.67C102.063 158.066 102.393 158.372 102.813 158.588C103.245 158.792 103.749 158.894 104.325 158.894C104.841 158.894 105.291 158.816 105.675 158.66C106.071 158.504 106.431 158.27 106.755 157.958L108.249 159.578C107.805 160.082 107.247 160.472 106.575 160.748C105.903 161.012 105.129 161.144 104.253 161.144Z" fill="#1476F2"/>
<path d="M39.5184 313V300.4H41.9304L47.2944 309.292H46.0164L51.2904 300.4H53.6844L53.7204 313H50.9844L50.9664 304.594H51.4704L47.2584 311.668H45.9444L41.6424 304.594H42.2544V313H39.5184ZM62.4518 313V311.11L62.2718 310.696V307.312C62.2718 306.712 62.0858 306.244 61.7138 305.908C61.3538 305.572 60.7958 305.404 60.0398 305.404C59.5238 305.404 59.0138 305.488 58.5098 305.656C58.0178 305.812 57.5978 306.028 57.2498 306.304L56.2418 304.342C56.7698 303.97 57.4058 303.682 58.1498 303.478C58.8938 303.274 59.6498 303.172 60.4178 303.172C61.8938 303.172 63.0398 303.52 63.8558 304.216C64.6718 304.912 65.0798 305.998 65.0798 307.474V313H62.4518ZM59.4998 313.144C58.7438 313.144 58.0958 313.018 57.5558 312.766C57.0158 312.502 56.6018 312.148 56.3138 311.704C56.0258 311.26 55.8818 310.762 55.8818 310.21C55.8818 309.634 56.0198 309.13 56.2958 308.698C56.5838 308.266 57.0338 307.93 57.6458 307.69C58.2578 307.438 59.0558 307.312 60.0398 307.312H62.6138V308.95H60.3458C59.6858 308.95 59.2298 309.058 58.9778 309.274C58.7378 309.49 58.6178 309.76 58.6178 310.084C58.6178 310.444 58.7558 310.732 59.0318 310.948C59.3198 311.152 59.7098 311.254 60.2018 311.254C60.6698 311.254 61.0898 311.146 61.4618 310.93C61.8338 310.702 62.1038 310.372 62.2718 309.94L62.7038 311.236C62.4998 311.86 62.1278 312.334 61.5878 312.658C61.0478 312.982 60.3518 313.144 59.4998 313.144ZM67.6212 313V303.316H70.4292V313H67.6212ZM69.0252 301.966C68.5092 301.966 68.0892 301.816 67.7652 301.516C67.4412 301.216 67.2792 300.844 67.2792 300.4C67.2792 299.956 67.4412 299.584 67.7652 299.284C68.0892 298.984 68.5092 298.834 69.0252 298.834C69.5412 298.834 69.9612 298.978 70.2852 299.266C70.6092 299.542 70.7712 299.902 70.7712 300.346C70.7712 300.814 70.6092 301.204 70.2852 301.516C69.9732 301.816 69.5532 301.966 69.0252 301.966ZM78.9213 303.172C79.6893 303.172 80.3733 303.328 80.9733 303.64C81.5853 303.94 82.0653 304.408 82.4133 305.044C82.7613 305.668 82.9353 306.472 82.9353 307.456V313H80.1273V307.888C80.1273 307.108 79.9533 306.532 79.6053 306.16C79.2693 305.788 78.7893 305.602 78.1653 305.602C77.7213 305.602 77.3193 305.698 76.9593 305.89C76.6113 306.07 76.3353 306.352 76.1313 306.736C75.9393 307.12 75.8433 307.612 75.8433 308.212V313H73.0353V303.316H75.7173V305.998L75.2133 305.188C75.5613 304.54 76.0593 304.042 76.7073 303.694C77.3553 303.346 78.0933 303.172 78.9213 303.172ZM89.4406 313.144C88.3006 313.144 87.4126 312.856 86.7766 312.28C86.1406 311.692 85.8226 310.822 85.8226 309.67V301.174H88.6306V309.634C88.6306 310.042 88.7386 310.36 88.9546 310.588C89.1706 310.804 89.4646 310.912 89.8366 310.912C90.2806 310.912 90.6586 310.792 90.9706 310.552L91.7266 312.532C91.4386 312.736 91.0906 312.892 90.6826 313C90.2866 313.096 89.8726 313.144 89.4406 313.144ZM84.3286 305.692V303.532H91.0426V305.692H84.3286ZM99.2428 313V311.11L99.0628 310.696V307.312C99.0628 306.712 98.8768 306.244 98.5048 305.908C98.1448 305.572 97.5868 305.404 96.8308 305.404C96.3148 305.404 95.8048 305.488 95.3008 305.656C94.8088 305.812 94.3888 306.028 94.0408 306.304L93.0328 304.342C93.5608 303.97 94.1968 303.682 94.9408 303.478C95.6848 303.274 96.4408 303.172 97.2088 303.172C98.6848 303.172 99.8308 303.52 100.647 304.216C101.463 304.912 101.871 305.998 101.871 307.474V313H99.2428ZM96.2908 313.144C95.5348 313.144 94.8868 313.018 94.3468 312.766C93.8068 312.502 93.3928 312.148 93.1048 311.704C92.8168 311.26 92.6728 310.762 92.6728 310.21C92.6728 309.634 92.8108 309.13 93.0868 308.698C93.3748 308.266 93.8248 307.93 94.4368 307.69C95.0488 307.438 95.8468 307.312 96.8308 307.312H99.4048V308.95H97.1368C96.4768 308.95 96.0208 309.058 95.7688 309.274C95.5288 309.49 95.4088 309.76 95.4088 310.084C95.4088 310.444 95.5468 310.732 95.8228 310.948C96.1108 311.152 96.5008 311.254 96.9928 311.254C97.4608 311.254 97.8808 311.146 98.2528 310.93C98.6248 310.702 98.8948 310.372 99.0628 309.94L99.4948 311.236C99.2908 311.86 98.9188 312.334 98.3788 312.658C97.8388 312.982 97.1428 313.144 96.2908 313.144ZM104.412 313V303.316H107.22V313H104.412ZM105.816 301.966C105.3 301.966 104.88 301.816 104.556 301.516C104.232 301.216 104.07 300.844 104.07 300.4C104.07 299.956 104.232 299.584 104.556 299.284C104.88 298.984 105.3 298.834 105.816 298.834C106.332 298.834 106.752 298.978 107.076 299.266C107.4 299.542 107.562 299.902 107.562 300.346C107.562 300.814 107.4 301.204 107.076 301.516C106.764 301.816 106.344 301.966 105.816 301.966ZM115.712 303.172C116.48 303.172 117.164 303.328 117.764 303.64C118.376 303.94 118.856 304.408 119.204 305.044C119.552 305.668 119.726 306.472 119.726 307.456V313H116.918V307.888C116.918 307.108 116.744 306.532 116.396 306.16C116.06 305.788 115.58 305.602 114.956 305.602C114.512 305.602 114.11 305.698 113.75 305.89C113.402 306.07 113.126 306.352 112.922 306.736C112.73 307.12 112.634 307.612 112.634 308.212V313H109.826V303.316H112.508V305.998L112.004 305.188C112.352 304.54 112.85 304.042 113.498 303.694C114.146 303.346 114.884 303.172 115.712 303.172Z" fill="#4B3DDB"/>
<path d="M287.666 161V148.4H293.39C294.758 148.4 295.964 148.664 297.008 149.192C298.052 149.708 298.868 150.434 299.456 151.37C300.044 152.306 300.338 153.416 300.338 154.7C300.338 155.972 300.044 157.082 299.456 158.03C298.868 158.966 298.052 159.698 297.008 160.226C295.964 160.742 294.758 161 293.39 161H287.666ZM290.582 158.606H293.246C294.086 158.606 294.812 158.45 295.424 158.138C296.048 157.814 296.528 157.358 296.864 156.77C297.212 156.182 297.386 155.492 297.386 154.7C297.386 153.896 297.212 153.206 296.864 152.63C296.528 152.042 296.048 151.592 295.424 151.28C294.812 150.956 294.086 150.794 293.246 150.794H290.582V158.606ZM307.145 161.144C306.041 161.144 305.069 160.928 304.229 160.496C303.401 160.064 302.759 159.476 302.303 158.732C301.847 157.976 301.619 157.118 301.619 156.158C301.619 155.186 301.841 154.328 302.285 153.584C302.741 152.828 303.359 152.24 304.139 151.82C304.919 151.388 305.801 151.172 306.785 151.172C307.733 151.172 308.585 151.376 309.341 151.784C310.109 152.18 310.715 152.756 311.159 153.512C311.603 154.256 311.825 155.15 311.825 156.194C311.825 156.302 311.819 156.428 311.807 156.572C311.795 156.704 311.783 156.83 311.771 156.95H303.905V155.312H310.295L309.215 155.798C309.215 155.294 309.113 154.856 308.909 154.484C308.705 154.112 308.423 153.824 308.063 153.62C307.703 153.404 307.283 153.296 306.803 153.296C306.323 153.296 305.897 153.404 305.525 153.62C305.165 153.824 304.883 154.118 304.679 154.502C304.475 154.874 304.373 155.318 304.373 155.834V156.266C304.373 156.794 304.487 157.262 304.715 157.67C304.955 158.066 305.285 158.372 305.705 158.588C306.137 158.792 306.641 158.894 307.217 158.894C307.733 158.894 308.183 158.816 308.567 158.66C308.963 158.504 309.323 158.27 309.647 157.958L311.141 159.578C310.697 160.082 310.139 160.472 309.467 160.748C308.795 161.012 308.021 161.144 307.145 161.144ZM313.694 161V147.644H316.502V161H313.694ZM319.109 161V151.316H321.917V161H319.109ZM320.513 149.966C319.997 149.966 319.577 149.816 319.253 149.516C318.929 149.216 318.767 148.844 318.767 148.4C318.767 147.956 318.929 147.584 319.253 147.284C319.577 146.984 319.997 146.834 320.513 146.834C321.029 146.834 321.449 146.978 321.773 147.266C322.097 147.542 322.259 147.902 322.259 148.346C322.259 148.814 322.097 149.204 321.773 149.516C321.461 149.816 321.041 149.966 320.513 149.966ZM327.151 161L323.083 151.316H325.981L329.365 159.65H327.925L331.435 151.316H334.135L330.049 161H327.151ZM339.823 161.144C338.719 161.144 337.747 160.928 336.907 160.496C336.079 160.064 335.437 159.476 334.981 158.732C334.525 157.976 334.297 157.118 334.297 156.158C334.297 155.186 334.519 154.328 334.963 153.584C335.419 152.828 336.037 152.24 336.817 151.82C337.597 151.388 338.479 151.172 339.463 151.172C340.411 151.172 341.263 151.376 342.019 151.784C342.787 152.18 343.393 152.756 343.837 153.512C344.281 154.256 344.503 155.15 344.503 156.194C344.503 156.302 344.497 156.428 344.485 156.572C344.473 156.704 344.461 156.83 344.449 156.95H336.583V155.312H342.973L341.893 155.798C341.893 155.294 341.791 154.856 341.587 154.484C341.383 154.112 341.101 153.824 340.741 153.62C340.381 153.404 339.961 153.296 339.481 153.296C339.001 153.296 338.575 153.404 338.203 153.62C337.843 153.824 337.561 154.118 337.357 154.502C337.153 154.874 337.051 155.318 337.051 155.834V156.266C337.051 156.794 337.165 157.262 337.393 157.67C337.633 158.066 337.963 158.372 338.383 158.588C338.815 158.792 339.319 158.894 339.895 158.894C340.411 158.894 340.861 158.816 341.245 158.66C341.641 158.504 342.001 158.27 342.325 157.958L343.819 159.578C343.375 160.082 342.817 160.472 342.145 160.748C341.473 161.012 340.699 161.144 339.823 161.144ZM346.372 161V151.316H349.054V154.052L348.676 153.26C348.964 152.576 349.426 152.06 350.062 151.712C350.698 151.352 351.472 151.172 352.384 151.172V153.764C352.264 153.752 352.156 153.746 352.06 153.746C351.964 153.734 351.862 153.728 351.754 153.728C350.986 153.728 350.362 153.95 349.882 154.394C349.414 154.826 349.18 155.504 349.18 156.428V161H346.372Z" fill="#1476F2"/>
<path d="M274.737 45V32.4H280.461C281.829 32.4 283.035 32.664 284.079 33.192C285.123 33.708 285.939 34.434 286.527 35.37C287.115 36.306 287.409 37.416 287.409 38.7C287.409 39.972 287.115 41.082 286.527 42.03C285.939 42.966 285.123 43.698 284.079 44.226C283.035 44.742 281.829 45 280.461 45H274.737ZM277.653 42.606H280.317C281.157 42.606 281.883 42.45 282.495 42.138C283.119 41.814 283.599 41.358 283.935 40.77C284.283 40.182 284.457 39.492 284.457 38.7C284.457 37.896 284.283 37.206 283.935 36.63C283.599 36.042 283.119 35.592 282.495 35.28C281.883 34.956 281.157 34.794 280.317 34.794H277.653V42.606ZM289.41 45V35.316H292.218V45H289.41ZM290.814 33.966C290.298 33.966 289.878 33.816 289.554 33.516C289.23 33.216 289.068 32.844 289.068 32.4C289.068 31.956 289.23 31.584 289.554 31.284C289.878 30.984 290.298 30.834 290.814 30.834C291.33 30.834 291.75 30.978 292.074 31.266C292.398 31.542 292.56 31.902 292.56 32.346C292.56 32.814 292.398 33.204 292.074 33.516C291.762 33.816 291.342 33.966 290.814 33.966ZM298.082 45.144C297.254 45.144 296.456 45.048 295.688 44.856C294.932 44.652 294.332 44.4 293.888 44.1L294.824 42.084C295.268 42.36 295.79 42.588 296.39 42.768C297.002 42.936 297.602 43.02 298.19 43.02C298.838 43.02 299.294 42.942 299.558 42.786C299.834 42.63 299.972 42.414 299.972 42.138C299.972 41.91 299.864 41.742 299.648 41.634C299.444 41.514 299.168 41.424 298.82 41.364C298.472 41.304 298.088 41.244 297.668 41.184C297.26 41.124 296.846 41.046 296.426 40.95C296.006 40.842 295.622 40.686 295.274 40.482C294.926 40.278 294.644 40.002 294.428 39.654C294.224 39.306 294.122 38.856 294.122 38.304C294.122 37.692 294.296 37.152 294.644 36.684C295.004 36.216 295.52 35.85 296.192 35.586C296.864 35.31 297.668 35.172 298.604 35.172C299.264 35.172 299.936 35.244 300.62 35.388C301.304 35.532 301.874 35.742 302.33 36.018L301.394 38.016C300.926 37.74 300.452 37.554 299.972 37.458C299.504 37.35 299.048 37.296 298.604 37.296C297.98 37.296 297.524 37.38 297.236 37.548C296.948 37.716 296.804 37.932 296.804 38.196C296.804 38.436 296.906 38.616 297.11 38.736C297.326 38.856 297.608 38.952 297.956 39.024C298.304 39.096 298.682 39.162 299.09 39.222C299.51 39.27 299.93 39.348 300.35 39.456C300.77 39.564 301.148 39.72 301.484 39.924C301.832 40.116 302.114 40.386 302.33 40.734C302.546 41.07 302.654 41.514 302.654 42.066C302.654 42.666 302.474 43.2 302.114 43.668C301.754 44.124 301.232 44.484 300.548 44.748C299.876 45.012 299.054 45.144 298.082 45.144ZM309.067 45.144C308.023 45.144 307.093 44.934 306.277 44.514C305.461 44.082 304.819 43.488 304.351 42.732C303.895 41.976 303.667 41.118 303.667 40.158C303.667 39.186 303.895 38.328 304.351 37.584C304.819 36.828 305.461 36.24 306.277 35.82C307.093 35.388 308.023 35.172 309.067 35.172C310.087 35.172 310.975 35.388 311.731 35.82C312.487 36.24 313.045 36.846 313.405 37.638L311.227 38.808C310.975 38.352 310.657 38.016 310.273 37.8C309.901 37.584 309.493 37.476 309.049 37.476C308.569 37.476 308.137 37.584 307.753 37.8C307.369 38.016 307.063 38.322 306.835 38.718C306.619 39.114 306.511 39.594 306.511 40.158C306.511 40.722 306.619 41.202 306.835 41.598C307.063 41.994 307.369 42.3 307.753 42.516C308.137 42.732 308.569 42.84 309.049 42.84C309.493 42.84 309.901 42.738 310.273 42.534C310.657 42.318 310.975 41.976 311.227 41.508L313.405 42.696C313.045 43.476 312.487 44.082 311.731 44.514C310.975 44.934 310.087 45.144 309.067 45.144ZM319.507 45.144C318.475 45.144 317.557 44.928 316.753 44.496C315.961 44.064 315.331 43.476 314.863 42.732C314.407 41.976 314.179 41.118 314.179 40.158C314.179 39.186 314.407 38.328 314.863 37.584C315.331 36.828 315.961 36.24 316.753 35.82C317.557 35.388 318.475 35.172 319.507 35.172C320.527 35.172 321.439 35.388 322.243 35.82C323.047 36.24 323.677 36.822 324.133 37.566C324.589 38.31 324.817 39.174 324.817 40.158C324.817 41.118 324.589 41.976 324.133 42.732C323.677 43.476 323.047 44.064 322.243 44.496C321.439 44.928 320.527 45.144 319.507 45.144ZM319.507 42.84C319.975 42.84 320.395 42.732 320.767 42.516C321.139 42.3 321.433 41.994 321.649 41.598C321.865 41.19 321.973 40.71 321.973 40.158C321.973 39.594 321.865 39.114 321.649 38.718C321.433 38.322 321.139 38.016 320.767 37.8C320.395 37.584 319.975 37.476 319.507 37.476C319.039 37.476 318.619 37.584 318.247 37.8C317.875 38.016 317.575 38.322 317.347 38.718C317.131 39.114 317.023 39.594 317.023 40.158C317.023 40.71 317.131 41.19 317.347 41.598C317.575 41.994 317.875 42.3 318.247 42.516C318.619 42.732 319.039 42.84 319.507 42.84ZM329.058 45L324.99 35.316H327.888L331.272 43.65H329.832L333.342 35.316H336.042L331.956 45H329.058ZM341.73 45.144C340.626 45.144 339.654 44.928 338.814 44.496C337.986 44.064 337.344 43.476 336.888 42.732C336.432 41.976 336.204 41.118 336.204 40.158C336.204 39.186 336.426 38.328 336.87 37.584C337.326 36.828 337.944 36.24 338.724 35.82C339.504 35.388 340.386 35.172 341.37 35.172C342.318 35.172 343.17 35.376 343.926 35.784C344.694 36.18 345.3 36.756 345.744 37.512C346.188 38.256 346.41 39.15 346.41 40.194C346.41 40.302 346.404 40.428 346.392 40.572C346.38 40.704 346.368 40.83 346.356 40.95H338.49V39.312H344.88L343.8 39.798C343.8 39.294 343.698 38.856 343.494 38.484C343.29 38.112 343.008 37.824 342.648 37.62C342.288 37.404 341.868 37.296 341.388 37.296C340.908 37.296 340.482 37.404 340.11 37.62C339.75 37.824 339.468 38.118 339.264 38.502C339.06 38.874 338.958 39.318 338.958 39.834V40.266C338.958 40.794 339.072 41.262 339.3 41.67C339.54 42.066 339.87 42.372 340.29 42.588C340.722 42.792 341.226 42.894 341.802 42.894C342.318 42.894 342.768 42.816 343.152 42.66C343.548 42.504 343.908 42.27 344.232 41.958L345.726 43.578C345.282 44.082 344.724 44.472 344.052 44.748C343.38 45.012 342.606 45.144 341.73 45.144ZM348.279 45V35.316H350.961V38.052L350.583 37.26C350.871 36.576 351.333 36.06 351.969 35.712C352.605 35.352 353.379 35.172 354.291 35.172V37.764C354.171 37.752 354.063 37.746 353.967 37.746C353.871 37.734 353.769 37.728 353.661 37.728C352.893 37.728 352.269 37.95 351.789 38.394C351.321 38.826 351.087 39.504 351.087 40.428V45H348.279ZM357.519 48.636C357.015 48.636 356.517 48.558 356.025 48.402C355.533 48.246 355.131 48.03 354.819 47.754L355.845 45.756C356.061 45.948 356.307 46.098 356.583 46.206C356.871 46.314 357.153 46.368 357.429 46.368C357.825 46.368 358.137 46.272 358.365 46.08C358.605 45.9 358.821 45.594 359.013 45.162L359.517 43.974L359.733 43.668L363.207 35.316H365.907L361.533 45.594C361.221 46.374 360.861 46.986 360.453 47.43C360.057 47.874 359.613 48.186 359.121 48.366C358.641 48.546 358.107 48.636 357.519 48.636ZM359.175 45.378L354.855 35.316H357.753L361.101 43.416L359.175 45.378Z" fill="#5DC792"/>
<path d="M284.039 313.216C283.043 313.216 282.119 313.054 281.267 312.73C280.427 312.406 279.695 311.95 279.071 311.362C278.459 310.774 277.979 310.084 277.631 309.292C277.295 308.5 277.127 307.636 277.127 306.7C277.127 305.764 277.295 304.9 277.631 304.108C277.979 303.316 278.465 302.626 279.089 302.038C279.713 301.45 280.445 300.994 281.285 300.67C282.125 300.346 283.037 300.184 284.021 300.184C285.017 300.184 285.929 300.346 286.757 300.67C287.597 300.994 288.323 301.45 288.935 302.038C289.559 302.626 290.045 303.316 290.393 304.108C290.741 304.888 290.915 305.752 290.915 306.7C290.915 307.636 290.741 308.506 290.393 309.31C290.045 310.102 289.559 310.792 288.935 311.38C288.323 311.956 287.597 312.406 286.757 312.73C285.929 313.054 285.023 313.216 284.039 313.216ZM284.021 310.732C284.585 310.732 285.101 310.636 285.569 310.444C286.049 310.252 286.469 309.976 286.829 309.616C287.189 309.256 287.465 308.83 287.657 308.338C287.861 307.846 287.963 307.3 287.963 306.7C287.963 306.1 287.861 305.554 287.657 305.062C287.465 304.57 287.189 304.144 286.829 303.784C286.481 303.424 286.067 303.148 285.587 302.956C285.107 302.764 284.585 302.668 284.021 302.668C283.457 302.668 282.935 302.764 282.455 302.956C281.987 303.148 281.573 303.424 281.213 303.784C280.853 304.144 280.571 304.57 280.367 305.062C280.175 305.554 280.079 306.1 280.079 306.7C280.079 307.288 280.175 307.834 280.367 308.338C280.571 308.83 280.847 309.256 281.195 309.616C281.555 309.976 281.975 310.252 282.455 310.444C282.935 310.636 283.457 310.732 284.021 310.732ZM298.632 313.144C297.816 313.144 297.102 312.964 296.49 312.604C295.878 312.244 295.398 311.698 295.05 310.966C294.714 310.222 294.546 309.286 294.546 308.158C294.546 307.018 294.708 306.082 295.032 305.35C295.356 304.618 295.824 304.072 296.436 303.712C297.048 303.352 297.78 303.172 298.632 303.172C299.544 303.172 300.36 303.382 301.08 303.802C301.812 304.21 302.388 304.786 302.808 305.53C303.24 306.274 303.456 307.15 303.456 308.158C303.456 309.178 303.24 310.06 302.808 310.804C302.388 311.548 301.812 312.124 301.08 312.532C300.36 312.94 299.544 313.144 298.632 313.144ZM292.908 316.492V303.316H295.59V305.296L295.536 308.176L295.716 311.038V316.492H292.908ZM298.146 310.84C298.614 310.84 299.028 310.732 299.388 310.516C299.76 310.3 300.054 309.994 300.27 309.598C300.498 309.19 300.612 308.71 300.612 308.158C300.612 307.594 300.498 307.114 300.27 306.718C300.054 306.322 299.76 306.016 299.388 305.8C299.028 305.584 298.614 305.476 298.146 305.476C297.678 305.476 297.258 305.584 296.886 305.8C296.514 306.016 296.22 306.322 296.004 306.718C295.788 307.114 295.68 307.594 295.68 308.158C295.68 308.71 295.788 309.19 296.004 309.598C296.22 309.994 296.514 310.3 296.886 310.516C297.258 310.732 297.678 310.84 298.146 310.84ZM309.296 313.144C308.156 313.144 307.268 312.856 306.632 312.28C305.996 311.692 305.678 310.822 305.678 309.67V301.174H308.486V309.634C308.486 310.042 308.594 310.36 308.81 310.588C309.026 310.804 309.32 310.912 309.692 310.912C310.136 310.912 310.514 310.792 310.826 310.552L311.582 312.532C311.294 312.736 310.946 312.892 310.538 313C310.142 313.096 309.728 313.144 309.296 313.144ZM304.184 305.692V303.532H310.898V305.692H304.184ZM313.158 313V303.316H315.966V313H313.158ZM314.562 301.966C314.046 301.966 313.626 301.816 313.302 301.516C312.978 301.216 312.816 300.844 312.816 300.4C312.816 299.956 312.978 299.584 313.302 299.284C313.626 298.984 314.046 298.834 314.562 298.834C315.078 298.834 315.498 298.978 315.822 299.266C316.146 299.542 316.308 299.902 316.308 300.346C316.308 300.814 316.146 301.204 315.822 301.516C315.51 301.816 315.09 301.966 314.562 301.966ZM330.974 303.172C331.742 303.172 332.42 303.328 333.008 303.64C333.608 303.94 334.076 304.408 334.412 305.044C334.76 305.668 334.934 306.472 334.934 307.456V313H332.126V307.888C332.126 307.108 331.964 306.532 331.64 306.16C331.316 305.788 330.86 305.602 330.272 305.602C329.864 305.602 329.498 305.698 329.174 305.89C328.85 306.07 328.598 306.346 328.418 306.718C328.238 307.09 328.148 307.564 328.148 308.14V313H325.34V307.888C325.34 307.108 325.178 306.532 324.854 306.16C324.542 305.788 324.092 305.602 323.504 305.602C323.096 305.602 322.73 305.698 322.406 305.89C322.082 306.07 321.83 306.346 321.65 306.718C321.47 307.09 321.38 307.564 321.38 308.14V313H318.572V303.316H321.254V305.962L320.75 305.188C321.086 304.528 321.56 304.03 322.172 303.694C322.796 303.346 323.504 303.172 324.296 303.172C325.184 303.172 325.958 303.4 326.618 303.856C327.29 304.3 327.734 304.984 327.95 305.908L326.96 305.638C327.284 304.882 327.8 304.282 328.508 303.838C329.228 303.394 330.05 303.172 330.974 303.172ZM337.451 313V303.316H340.259V313H337.451ZM338.855 301.966C338.339 301.966 337.919 301.816 337.595 301.516C337.271 301.216 337.109 300.844 337.109 300.4C337.109 299.956 337.271 299.584 337.595 299.284C337.919 298.984 338.339 298.834 338.855 298.834C339.371 298.834 339.791 298.978 340.115 299.266C340.439 299.542 340.601 299.902 340.601 300.346C340.601 300.814 340.439 301.204 340.115 301.516C339.803 301.816 339.383 301.966 338.855 301.966ZM342.199 313V311.308L347.923 304.54L348.409 305.476H342.325V303.316H350.677V305.008L344.953 311.776L344.449 310.84H350.839V313H342.199ZM357.322 313.144C356.218 313.144 355.246 312.928 354.406 312.496C353.578 312.064 352.936 311.476 352.48 310.732C352.024 309.976 351.796 309.118 351.796 308.158C351.796 307.186 352.018 306.328 352.462 305.584C352.918 304.828 353.536 304.24 354.316 303.82C355.096 303.388 355.978 303.172 356.962 303.172C357.91 303.172 358.762 303.376 359.518 303.784C360.286 304.18 360.892 304.756 361.336 305.512C361.78 306.256 362.002 307.15 362.002 308.194C362.002 308.302 361.996 308.428 361.984 308.572C361.972 308.704 361.96 308.83 361.948 308.95H354.082V307.312H360.472L359.392 307.798C359.392 307.294 359.29 306.856 359.086 306.484C358.882 306.112 358.6 305.824 358.24 305.62C357.88 305.404 357.46 305.296 356.98 305.296C356.5 305.296 356.074 305.404 355.702 305.62C355.342 305.824 355.06 306.118 354.856 306.502C354.652 306.874 354.55 307.318 354.55 307.834V308.266C354.55 308.794 354.664 309.262 354.892 309.67C355.132 310.066 355.462 310.372 355.882 310.588C356.314 310.792 356.818 310.894 357.394 310.894C357.91 310.894 358.36 310.816 358.744 310.66C359.14 310.504 359.5 310.27 359.824 309.958L361.318 311.578C360.874 312.082 360.316 312.472 359.644 312.748C358.972 313.012 358.198 313.144 357.322 313.144Z" fill="#4B3DDB"/>
<path d="M544.163 161V150.776H540.131V148.4H551.111V150.776H547.079V161H544.163ZM556.303 161.144C555.199 161.144 554.227 160.928 553.387 160.496C552.559 160.064 551.917 159.476 551.461 158.732C551.005 157.976 550.777 157.118 550.777 156.158C550.777 155.186 550.999 154.328 551.443 153.584C551.899 152.828 552.517 152.24 553.297 151.82C554.077 151.388 554.959 151.172 555.943 151.172C556.891 151.172 557.743 151.376 558.499 151.784C559.267 152.18 559.873 152.756 560.317 153.512C560.761 154.256 560.983 155.15 560.983 156.194C560.983 156.302 560.977 156.428 560.965 156.572C560.953 156.704 560.941 156.83 560.929 156.95H553.063V155.312H559.453L558.373 155.798C558.373 155.294 558.271 154.856 558.067 154.484C557.863 154.112 557.581 153.824 557.221 153.62C556.861 153.404 556.441 153.296 555.961 153.296C555.481 153.296 555.055 153.404 554.683 153.62C554.323 153.824 554.041 154.118 553.837 154.502C553.633 154.874 553.531 155.318 553.531 155.834V156.266C553.531 156.794 553.645 157.262 553.873 157.67C554.113 158.066 554.443 158.372 554.863 158.588C555.295 158.792 555.799 158.894 556.375 158.894C556.891 158.894 557.341 158.816 557.725 158.66C558.121 158.504 558.481 158.27 558.805 157.958L560.299 159.578C559.855 160.082 559.297 160.472 558.625 160.748C557.953 161.012 557.179 161.144 556.303 161.144ZM566.111 161.144C565.283 161.144 564.485 161.048 563.717 160.856C562.961 160.652 562.361 160.4 561.917 160.1L562.853 158.084C563.297 158.36 563.819 158.588 564.419 158.768C565.031 158.936 565.631 159.02 566.219 159.02C566.867 159.02 567.323 158.942 567.587 158.786C567.863 158.63 568.001 158.414 568.001 158.138C568.001 157.91 567.893 157.742 567.677 157.634C567.473 157.514 567.197 157.424 566.849 157.364C566.501 157.304 566.117 157.244 565.697 157.184C565.289 157.124 564.875 157.046 564.455 156.95C564.035 156.842 563.651 156.686 563.303 156.482C562.955 156.278 562.673 156.002 562.457 155.654C562.253 155.306 562.151 154.856 562.151 154.304C562.151 153.692 562.325 153.152 562.673 152.684C563.033 152.216 563.549 151.85 564.221 151.586C564.893 151.31 565.697 151.172 566.633 151.172C567.293 151.172 567.965 151.244 568.649 151.388C569.333 151.532 569.903 151.742 570.359 152.018L569.423 154.016C568.955 153.74 568.481 153.554 568.001 153.458C567.533 153.35 567.077 153.296 566.633 153.296C566.009 153.296 565.553 153.38 565.265 153.548C564.977 153.716 564.833 153.932 564.833 154.196C564.833 154.436 564.935 154.616 565.139 154.736C565.355 154.856 565.637 154.952 565.985 155.024C566.333 155.096 566.711 155.162 567.119 155.222C567.539 155.27 567.959 155.348 568.379 155.456C568.799 155.564 569.177 155.72 569.513 155.924C569.861 156.116 570.143 156.386 570.359 156.734C570.575 157.07 570.683 157.514 570.683 158.066C570.683 158.666 570.503 159.2 570.143 159.668C569.783 160.124 569.261 160.484 568.577 160.748C567.905 161.012 567.083 161.144 566.111 161.144ZM576.375 161.144C575.235 161.144 574.347 160.856 573.711 160.28C573.075 159.692 572.757 158.822 572.757 157.67V149.174H575.565V157.634C575.565 158.042 575.673 158.36 575.889 158.588C576.105 158.804 576.399 158.912 576.771 158.912C577.215 158.912 577.593 158.792 577.905 158.552L578.661 160.532C578.373 160.736 578.025 160.892 577.617 161C577.221 161.096 576.807 161.144 576.375 161.144ZM571.263 153.692V151.532H577.977V153.692H571.263Z" fill="#1476F2"/>
<path d="M776.788 161V148.4H782.944C784.528 148.4 785.716 148.7 786.508 149.3C787.312 149.9 787.714 150.692 787.714 151.676C787.714 152.336 787.552 152.912 787.228 153.404C786.904 153.884 786.46 154.256 785.896 154.52C785.332 154.784 784.684 154.916 783.952 154.916L784.294 154.178C785.086 154.178 785.788 154.31 786.4 154.574C787.012 154.826 787.486 155.204 787.822 155.708C788.17 156.212 788.344 156.83 788.344 157.562C788.344 158.642 787.918 159.488 787.066 160.1C786.214 160.7 784.96 161 783.304 161H776.788ZM779.686 158.804H783.088C783.844 158.804 784.414 158.684 784.798 158.444C785.194 158.192 785.392 157.796 785.392 157.256C785.392 156.728 785.194 156.338 784.798 156.086C784.414 155.822 783.844 155.69 783.088 155.69H779.47V153.566H782.584C783.292 153.566 783.832 153.446 784.204 153.206C784.588 152.954 784.78 152.576 784.78 152.072C784.78 151.58 784.588 151.214 784.204 150.974C783.832 150.722 783.292 150.596 782.584 150.596H779.686V158.804ZM794.44 161.144C793.636 161.144 792.916 160.988 792.28 160.676C791.656 160.364 791.17 159.89 790.822 159.254C790.474 158.606 790.3 157.784 790.3 156.788V151.316H793.108V156.374C793.108 157.178 793.276 157.772 793.612 158.156C793.96 158.528 794.446 158.714 795.07 158.714C795.502 158.714 795.886 158.624 796.222 158.444C796.558 158.252 796.822 157.964 797.014 157.58C797.206 157.184 797.302 156.692 797.302 156.104V151.316H800.11V161H797.446V158.336L797.932 159.11C797.608 159.782 797.128 160.292 796.492 160.64C795.868 160.976 795.184 161.144 794.44 161.144ZM802.711 161V151.316H805.519V161H802.711ZM804.115 149.966C803.599 149.966 803.179 149.816 802.855 149.516C802.531 149.216 802.369 148.844 802.369 148.4C802.369 147.956 802.531 147.584 802.855 147.284C803.179 146.984 803.599 146.834 804.115 146.834C804.631 146.834 805.051 146.978 805.375 147.266C805.699 147.542 805.861 147.902 805.861 148.346C805.861 148.814 805.699 149.204 805.375 149.516C805.063 149.816 804.643 149.966 804.115 149.966ZM808.125 161V147.644H810.933V161H808.125ZM817.697 161.144C816.785 161.144 815.963 160.94 815.231 160.532C814.499 160.112 813.917 159.53 813.485 158.786C813.065 158.042 812.855 157.166 812.855 156.158C812.855 155.138 813.065 154.256 813.485 153.512C813.917 152.768 814.499 152.192 815.231 151.784C815.963 151.376 816.785 151.172 817.697 151.172C818.513 151.172 819.227 151.352 819.839 151.712C820.451 152.072 820.925 152.618 821.261 153.35C821.597 154.082 821.765 155.018 821.765 156.158C821.765 157.286 821.603 158.222 821.279 158.966C820.955 159.698 820.487 160.244 819.875 160.604C819.275 160.964 818.549 161.144 817.697 161.144ZM818.183 158.84C818.639 158.84 819.053 158.732 819.425 158.516C819.797 158.3 820.091 157.994 820.307 157.598C820.535 157.19 820.649 156.71 820.649 156.158C820.649 155.594 820.535 155.114 820.307 154.718C820.091 154.322 819.797 154.016 819.425 153.8C819.053 153.584 818.639 153.476 818.183 153.476C817.715 153.476 817.295 153.584 816.923 153.8C816.551 154.016 816.251 154.322 816.023 154.718C815.807 155.114 815.699 155.594 815.699 156.158C815.699 156.71 815.807 157.19 816.023 157.598C816.251 157.994 816.551 158.3 816.923 158.516C817.295 158.732 817.715 158.84 818.183 158.84ZM820.721 161V159.02L820.775 156.14L820.595 153.278V147.644H823.403V161H820.721Z" fill="#1476F2"/>
<path d="M526.972 313.216C525.964 313.216 524.998 313.084 524.074 312.82C523.15 312.544 522.406 312.19 521.842 311.758L522.832 309.562C523.372 309.946 524.008 310.264 524.74 310.516C525.484 310.756 526.234 310.876 526.99 310.876C527.566 310.876 528.028 310.822 528.376 310.714C528.736 310.594 529 310.432 529.168 310.228C529.336 310.024 529.42 309.79 529.42 309.526C529.42 309.19 529.288 308.926 529.024 308.734C528.76 308.53 528.412 308.368 527.98 308.248C527.548 308.116 527.068 307.996 526.54 307.888C526.024 307.768 525.502 307.624 524.974 307.456C524.458 307.288 523.984 307.072 523.552 306.808C523.12 306.544 522.766 306.196 522.49 305.764C522.226 305.332 522.094 304.78 522.094 304.108C522.094 303.388 522.286 302.734 522.67 302.146C523.066 301.546 523.654 301.072 524.434 300.724C525.226 300.364 526.216 300.184 527.404 300.184C528.196 300.184 528.976 300.28 529.744 300.472C530.512 300.652 531.19 300.928 531.778 301.3L530.878 303.514C530.29 303.178 529.702 302.932 529.114 302.776C528.526 302.608 527.95 302.524 527.386 302.524C526.822 302.524 526.36 302.59 526 302.722C525.64 302.854 525.382 303.028 525.226 303.244C525.07 303.448 524.992 303.688 524.992 303.964C524.992 304.288 525.124 304.552 525.388 304.756C525.652 304.948 526 305.104 526.432 305.224C526.864 305.344 527.338 305.464 527.854 305.584C528.382 305.704 528.904 305.842 529.42 305.998C529.948 306.154 530.428 306.364 530.86 306.628C531.292 306.892 531.64 307.24 531.904 307.672C532.18 308.104 532.318 308.65 532.318 309.31C532.318 310.018 532.12 310.666 531.724 311.254C531.328 311.842 530.734 312.316 529.942 312.676C529.162 313.036 528.172 313.216 526.972 313.216ZM538.198 313.144C537.394 313.144 536.674 312.988 536.038 312.676C535.414 312.364 534.928 311.89 534.58 311.254C534.232 310.606 534.058 309.784 534.058 308.788V303.316H536.866V308.374C536.866 309.178 537.034 309.772 537.37 310.156C537.718 310.528 538.204 310.714 538.828 310.714C539.26 310.714 539.644 310.624 539.98 310.444C540.316 310.252 540.58 309.964 540.772 309.58C540.964 309.184 541.06 308.692 541.06 308.104V303.316H543.868V313H541.204V310.336L541.69 311.11C541.366 311.782 540.886 312.292 540.25 312.64C539.626 312.976 538.942 313.144 538.198 313.144ZM552.194 313.144C551.378 313.144 550.664 312.964 550.052 312.604C549.44 312.244 548.96 311.698 548.612 310.966C548.276 310.222 548.108 309.286 548.108 308.158C548.108 307.018 548.27 306.082 548.594 305.35C548.918 304.618 549.386 304.072 549.998 303.712C550.61 303.352 551.342 303.172 552.194 303.172C553.106 303.172 553.922 303.382 554.642 303.802C555.374 304.21 555.95 304.786 556.37 305.53C556.802 306.274 557.018 307.15 557.018 308.158C557.018 309.178 556.802 310.06 556.37 310.804C555.95 311.548 555.374 312.124 554.642 312.532C553.922 312.94 553.106 313.144 552.194 313.144ZM546.47 316.492V303.316H549.152V305.296L549.098 308.176L549.278 311.038V316.492H546.47ZM551.708 310.84C552.176 310.84 552.59 310.732 552.95 310.516C553.322 310.3 553.616 309.994 553.832 309.598C554.06 309.19 554.174 308.71 554.174 308.158C554.174 307.594 554.06 307.114 553.832 306.718C553.616 306.322 553.322 306.016 552.95 305.8C552.59 305.584 552.176 305.476 551.708 305.476C551.24 305.476 550.82 305.584 550.448 305.8C550.076 306.016 549.782 306.322 549.566 306.718C549.35 307.114 549.242 307.594 549.242 308.158C549.242 308.71 549.35 309.19 549.566 309.598C549.782 309.994 550.076 310.3 550.448 310.516C550.82 310.732 551.24 310.84 551.708 310.84ZM564.622 313.144C563.806 313.144 563.092 312.964 562.48 312.604C561.868 312.244 561.388 311.698 561.04 310.966C560.704 310.222 560.536 309.286 560.536 308.158C560.536 307.018 560.698 306.082 561.022 305.35C561.346 304.618 561.814 304.072 562.426 303.712C563.038 303.352 563.77 303.172 564.622 303.172C565.534 303.172 566.35 303.382 567.07 303.802C567.802 304.21 568.378 304.786 568.798 305.53C569.23 306.274 569.446 307.15 569.446 308.158C569.446 309.178 569.23 310.06 568.798 310.804C568.378 311.548 567.802 312.124 567.07 312.532C566.35 312.94 565.534 313.144 564.622 313.144ZM558.898 316.492V303.316H561.58V305.296L561.526 308.176L561.706 311.038V316.492H558.898ZM564.136 310.84C564.604 310.84 565.018 310.732 565.378 310.516C565.75 310.3 566.044 309.994 566.26 309.598C566.488 309.19 566.602 308.71 566.602 308.158C566.602 307.594 566.488 307.114 566.26 306.718C566.044 306.322 565.75 306.016 565.378 305.8C565.018 305.584 564.604 305.476 564.136 305.476C563.668 305.476 563.248 305.584 562.876 305.8C562.504 306.016 562.21 306.322 561.994 306.718C561.778 307.114 561.67 307.594 561.67 308.158C561.67 308.71 561.778 309.19 561.994 309.598C562.21 309.994 562.504 310.3 562.876 310.516C563.248 310.732 563.668 310.84 564.136 310.84ZM575.933 313.144C574.901 313.144 573.983 312.928 573.179 312.496C572.387 312.064 571.757 311.476 571.289 310.732C570.833 309.976 570.605 309.118 570.605 308.158C570.605 307.186 570.833 306.328 571.289 305.584C571.757 304.828 572.387 304.24 573.179 303.82C573.983 303.388 574.901 303.172 575.933 303.172C576.953 303.172 577.865 303.388 578.669 303.82C579.473 304.24 580.103 304.822 580.559 305.566C581.015 306.31 581.243 307.174 581.243 308.158C581.243 309.118 581.015 309.976 580.559 310.732C580.103 311.476 579.473 312.064 578.669 312.496C577.865 312.928 576.953 313.144 575.933 313.144ZM575.933 310.84C576.401 310.84 576.821 310.732 577.193 310.516C577.565 310.3 577.859 309.994 578.075 309.598C578.291 309.19 578.399 308.71 578.399 308.158C578.399 307.594 578.291 307.114 578.075 306.718C577.859 306.322 577.565 306.016 577.193 305.8C576.821 305.584 576.401 305.476 575.933 305.476C575.465 305.476 575.045 305.584 574.673 305.8C574.301 306.016 574.001 306.322 573.773 306.718C573.557 307.114 573.449 307.594 573.449 308.158C573.449 308.71 573.557 309.19 573.773 309.598C574.001 309.994 574.301 310.3 574.673 310.516C575.045 310.732 575.465 310.84 575.933 310.84ZM583.12 313V303.316H585.802V306.052L585.424 305.26C585.712 304.576 586.174 304.06 586.81 303.712C587.446 303.352 588.22 303.172 589.132 303.172V305.764C589.012 305.752 588.904 305.746 588.808 305.746C588.712 305.734 588.61 305.728 588.502 305.728C587.734 305.728 587.11 305.95 586.63 306.394C586.162 306.826 585.928 307.504 585.928 308.428V313H583.12ZM595.096 313.144C593.956 313.144 593.068 312.856 592.432 312.28C591.796 311.692 591.478 310.822 591.478 309.67V301.174H594.286V309.634C594.286 310.042 594.394 310.36 594.61 310.588C594.826 310.804 595.12 310.912 595.492 310.912C595.936 310.912 596.314 310.792 596.626 310.552L597.382 312.532C597.094 312.736 596.746 312.892 596.338 313C595.942 313.096 595.528 313.144 595.096 313.144ZM589.984 305.692V303.532H596.698V305.692H589.984Z" fill="#4B3DDB"/>
<path d="M503.954 45V32.4H509.408C510.536 32.4 511.508 32.586 512.324 32.958C513.14 33.318 513.77 33.84 514.214 34.524C514.658 35.208 514.88 36.024 514.88 36.972C514.88 37.908 514.658 38.718 514.214 39.402C513.77 40.086 513.14 40.614 512.324 40.986C511.508 41.346 510.536 41.526 509.408 41.526H505.574L506.87 40.212V45H503.954ZM506.87 40.536L505.574 39.15H509.246C510.146 39.15 510.818 38.958 511.262 38.574C511.706 38.19 511.928 37.656 511.928 36.972C511.928 36.276 511.706 35.736 511.262 35.352C510.818 34.968 510.146 34.776 509.246 34.776H505.574L506.87 33.39V40.536ZM516.746 45V35.316H519.428V38.052L519.05 37.26C519.338 36.576 519.8 36.06 520.436 35.712C521.072 35.352 521.846 35.172 522.758 35.172V37.764C522.638 37.752 522.53 37.746 522.434 37.746C522.338 37.734 522.236 37.728 522.128 37.728C521.36 37.728 520.736 37.95 520.256 38.394C519.788 38.826 519.554 39.504 519.554 40.428V45H516.746ZM528.966 45.144C527.934 45.144 527.016 44.928 526.212 44.496C525.42 44.064 524.79 43.476 524.322 42.732C523.866 41.976 523.638 41.118 523.638 40.158C523.638 39.186 523.866 38.328 524.322 37.584C524.79 36.828 525.42 36.24 526.212 35.82C527.016 35.388 527.934 35.172 528.966 35.172C529.986 35.172 530.898 35.388 531.702 35.82C532.506 36.24 533.136 36.822 533.592 37.566C534.048 38.31 534.276 39.174 534.276 40.158C534.276 41.118 534.048 41.976 533.592 42.732C533.136 43.476 532.506 44.064 531.702 44.496C530.898 44.928 529.986 45.144 528.966 45.144ZM528.966 42.84C529.434 42.84 529.854 42.732 530.226 42.516C530.598 42.3 530.892 41.994 531.108 41.598C531.324 41.19 531.432 40.71 531.432 40.158C531.432 39.594 531.324 39.114 531.108 38.718C530.892 38.322 530.598 38.016 530.226 37.8C529.854 37.584 529.434 37.476 528.966 37.476C528.498 37.476 528.078 37.584 527.706 37.8C527.334 38.016 527.034 38.322 526.806 38.718C526.59 39.114 526.482 39.594 526.482 40.158C526.482 40.71 526.59 41.19 526.806 41.598C527.034 41.994 527.334 42.3 527.706 42.516C528.078 42.732 528.498 42.84 528.966 42.84ZM540.112 45.144C538.972 45.144 538.084 44.856 537.448 44.28C536.812 43.692 536.494 42.822 536.494 41.67V33.174H539.302V41.634C539.302 42.042 539.41 42.36 539.626 42.588C539.842 42.804 540.136 42.912 540.508 42.912C540.952 42.912 541.33 42.792 541.642 42.552L542.398 44.532C542.11 44.736 541.762 44.892 541.354 45C540.958 45.096 540.544 45.144 540.112 45.144ZM535 37.692V35.532H541.714V37.692H535ZM548.284 45.144C547.252 45.144 546.334 44.928 545.53 44.496C544.738 44.064 544.108 43.476 543.64 42.732C543.184 41.976 542.956 41.118 542.956 40.158C542.956 39.186 543.184 38.328 543.64 37.584C544.108 36.828 544.738 36.24 545.53 35.82C546.334 35.388 547.252 35.172 548.284 35.172C549.304 35.172 550.216 35.388 551.02 35.82C551.824 36.24 552.454 36.822 552.91 37.566C553.366 38.31 553.594 39.174 553.594 40.158C553.594 41.118 553.366 41.976 552.91 42.732C552.454 43.476 551.824 44.064 551.02 44.496C550.216 44.928 549.304 45.144 548.284 45.144ZM548.284 42.84C548.752 42.84 549.172 42.732 549.544 42.516C549.916 42.3 550.21 41.994 550.426 41.598C550.642 41.19 550.75 40.71 550.75 40.158C550.75 39.594 550.642 39.114 550.426 38.718C550.21 38.322 549.916 38.016 549.544 37.8C549.172 37.584 548.752 37.476 548.284 37.476C547.816 37.476 547.396 37.584 547.024 37.8C546.652 38.016 546.352 38.322 546.124 38.718C545.908 39.114 545.8 39.594 545.8 40.158C545.8 40.71 545.908 41.19 546.124 41.598C546.352 41.994 546.652 42.3 547.024 42.516C547.396 42.732 547.816 42.84 548.284 42.84ZM559.431 45.144C558.291 45.144 557.403 44.856 556.767 44.28C556.131 43.692 555.813 42.822 555.813 41.67V33.174H558.621V41.634C558.621 42.042 558.729 42.36 558.945 42.588C559.161 42.804 559.455 42.912 559.827 42.912C560.271 42.912 560.649 42.792 560.961 42.552L561.717 44.532C561.429 44.736 561.081 44.892 560.673 45C560.277 45.096 559.863 45.144 559.431 45.144ZM554.319 37.692V35.532H561.033V37.692H554.319ZM564.341 48.636C563.837 48.636 563.339 48.558 562.847 48.402C562.355 48.246 561.953 48.03 561.641 47.754L562.667 45.756C562.883 45.948 563.129 46.098 563.405 46.206C563.693 46.314 563.975 46.368 564.251 46.368C564.647 46.368 564.959 46.272 565.187 46.08C565.427 45.9 565.643 45.594 565.835 45.162L566.339 43.974L566.555 43.668L570.029 35.316H572.729L568.355 45.594C568.043 46.374 567.683 46.986 567.275 47.43C566.879 47.874 566.435 48.186 565.943 48.366C565.463 48.546 564.929 48.636 564.341 48.636ZM565.997 45.378L561.677 35.316H564.575L567.923 43.416L565.997 45.378ZM579.599 45.144C578.783 45.144 578.069 44.964 577.457 44.604C576.845 44.244 576.365 43.698 576.017 42.966C575.681 42.222 575.513 41.286 575.513 40.158C575.513 39.018 575.675 38.082 575.999 37.35C576.323 36.618 576.791 36.072 577.403 35.712C578.015 35.352 578.747 35.172 579.599 35.172C580.511 35.172 581.327 35.382 582.047 35.802C582.779 36.21 583.355 36.786 583.775 37.53C584.207 38.274 584.423 39.15 584.423 40.158C584.423 41.178 584.207 42.06 583.775 42.804C583.355 43.548 582.779 44.124 582.047 44.532C581.327 44.94 580.511 45.144 579.599 45.144ZM573.875 48.492V35.316H576.557V37.296L576.503 40.176L576.683 43.038V48.492H573.875ZM579.113 42.84C579.581 42.84 579.995 42.732 580.355 42.516C580.727 42.3 581.021 41.994 581.237 41.598C581.465 41.19 581.579 40.71 581.579 40.158C581.579 39.594 581.465 39.114 581.237 38.718C581.021 38.322 580.727 38.016 580.355 37.8C579.995 37.584 579.581 37.476 579.113 37.476C578.645 37.476 578.225 37.584 577.853 37.8C577.481 38.016 577.187 38.322 576.971 38.718C576.755 39.114 576.647 39.594 576.647 40.158C576.647 40.71 576.755 41.19 576.971 41.598C577.187 41.994 577.481 42.3 577.853 42.516C578.225 42.732 578.645 42.84 579.113 42.84ZM586.303 45V35.316H589.111V45H586.303ZM587.707 33.966C587.191 33.966 586.771 33.816 586.447 33.516C586.123 33.216 585.961 32.844 585.961 32.4C585.961 31.956 586.123 31.584 586.447 31.284C586.771 30.984 587.191 30.834 587.707 30.834C588.223 30.834 588.643 30.978 588.967 31.266C589.291 31.542 589.453 31.902 589.453 32.346C589.453 32.814 589.291 33.204 588.967 33.516C588.655 33.816 588.235 33.966 587.707 33.966ZM597.603 35.172C598.371 35.172 599.055 35.328 599.655 35.64C600.267 35.94 600.747 36.408 601.095 37.044C601.443 37.668 601.617 38.472 601.617 39.456V45H598.809V39.888C598.809 39.108 598.635 38.532 598.287 38.16C597.951 37.788 597.471 37.602 596.847 37.602C596.403 37.602 596.001 37.698 595.641 37.89C595.293 38.07 595.017 38.352 594.813 38.736C594.621 39.12 594.525 39.612 594.525 40.212V45H591.717V35.316H594.399V37.998L593.895 37.188C594.243 36.54 594.741 36.042 595.389 35.694C596.037 35.346 596.775 35.172 597.603 35.172ZM608.787 48.636C607.875 48.636 606.993 48.522 606.141 48.294C605.301 48.078 604.599 47.748 604.035 47.304L605.151 45.288C605.559 45.624 606.075 45.888 606.699 46.08C607.335 46.284 607.959 46.386 608.571 46.386C609.567 46.386 610.287 46.164 610.731 45.72C611.187 45.276 611.415 44.616 611.415 43.74V42.282L611.595 39.852L611.559 37.404V35.316H614.223V43.38C614.223 45.18 613.755 46.506 612.819 47.358C611.883 48.21 610.539 48.636 608.787 48.636ZM608.355 44.532C607.455 44.532 606.639 44.34 605.907 43.956C605.187 43.56 604.605 43.014 604.161 42.318C603.729 41.61 603.513 40.788 603.513 39.852C603.513 38.904 603.729 38.082 604.161 37.386C604.605 36.678 605.187 36.132 605.907 35.748C606.639 35.364 607.455 35.172 608.355 35.172C609.171 35.172 609.891 35.34 610.515 35.676C611.139 36 611.625 36.51 611.973 37.206C612.321 37.89 612.495 38.772 612.495 39.852C612.495 40.92 612.321 41.802 611.973 42.498C611.625 43.182 611.139 43.692 610.515 44.028C609.891 44.364 609.171 44.532 608.355 44.532ZM608.913 42.228C609.405 42.228 609.843 42.132 610.227 41.94C610.611 41.736 610.911 41.454 611.127 41.094C611.343 40.734 611.451 40.32 611.451 39.852C611.451 39.372 611.343 38.958 611.127 38.61C610.911 38.25 610.611 37.974 610.227 37.782C609.843 37.578 609.405 37.476 608.913 37.476C608.421 37.476 607.983 37.578 607.599 37.782C607.215 37.974 606.909 38.25 606.681 38.61C606.465 38.958 606.357 39.372 606.357 39.852C606.357 40.32 606.465 40.734 606.681 41.094C606.909 41.454 607.215 41.736 607.599 41.94C607.983 42.132 608.421 42.228 608.913 42.228Z" fill="#33B1B8"/>
<path d="M1019.92 161V148.4H1025.37C1026.5 148.4 1027.47 148.586 1028.29 148.958C1029.1 149.318 1029.73 149.84 1030.18 150.524C1030.62 151.208 1030.84 152.024 1030.84 152.972C1030.84 153.908 1030.62 154.718 1030.18 155.402C1029.73 156.086 1029.1 156.614 1028.29 156.986C1027.47 157.346 1026.5 157.526 1025.37 157.526H1021.54L1022.83 156.212V161H1019.92ZM1022.83 156.536L1021.54 155.15H1025.21C1026.11 155.15 1026.78 154.958 1027.23 154.574C1027.67 154.19 1027.89 153.656 1027.89 152.972C1027.89 152.276 1027.67 151.736 1027.23 151.352C1026.78 150.968 1026.11 150.776 1025.21 150.776H1021.54L1022.83 149.39V156.536ZM1032.9 161V147.644H1035.71V161H1032.9ZM1044.26 161V159.11L1044.08 158.696V155.312C1044.08 154.712 1043.89 154.244 1043.52 153.908C1043.16 153.572 1042.6 153.404 1041.85 153.404C1041.33 153.404 1040.82 153.488 1040.32 153.656C1039.82 153.812 1039.4 154.028 1039.06 154.304L1038.05 152.342C1038.58 151.97 1039.21 151.682 1039.96 151.478C1040.7 151.274 1041.46 151.172 1042.22 151.172C1043.7 151.172 1044.85 151.52 1045.66 152.216C1046.48 152.912 1046.89 153.998 1046.89 155.474V161H1044.26ZM1041.31 161.144C1040.55 161.144 1039.9 161.018 1039.36 160.766C1038.82 160.502 1038.41 160.148 1038.12 159.704C1037.83 159.26 1037.69 158.762 1037.69 158.21C1037.69 157.634 1037.83 157.13 1038.1 156.698C1038.39 156.266 1038.84 155.93 1039.45 155.69C1040.06 155.438 1040.86 155.312 1041.85 155.312H1044.42V156.95H1042.15C1041.49 156.95 1041.04 157.058 1040.78 157.274C1040.54 157.49 1040.42 157.76 1040.42 158.084C1040.42 158.444 1040.56 158.732 1040.84 158.948C1041.13 159.152 1041.52 159.254 1042.01 159.254C1042.48 159.254 1042.9 159.146 1043.27 158.93C1043.64 158.702 1043.91 158.372 1044.08 157.94L1044.51 159.236C1044.31 159.86 1043.93 160.334 1043.39 160.658C1042.85 160.982 1042.16 161.144 1041.31 161.144ZM1055.31 151.172C1056.08 151.172 1056.76 151.328 1057.36 151.64C1057.98 151.94 1058.46 152.408 1058.8 153.044C1059.15 153.668 1059.33 154.472 1059.33 155.456V161H1056.52V155.888C1056.52 155.108 1056.34 154.532 1056 154.16C1055.66 153.788 1055.18 153.602 1054.56 153.602C1054.11 153.602 1053.71 153.698 1053.35 153.89C1053 154.07 1052.73 154.352 1052.52 154.736C1052.33 155.12 1052.23 155.612 1052.23 156.212V161H1049.43V151.316H1052.11V153.998L1051.6 153.188C1051.95 152.54 1052.45 152.042 1053.1 151.694C1053.75 151.346 1054.48 151.172 1055.31 151.172Z" fill="#1476F2"/>
<path d="M764.255 300.4H767.171V313H764.255V300.4ZM758.531 313H755.615V300.4H758.531V313ZM764.471 307.834H758.315V305.368H764.471V307.834ZM775.894 313V311.11L775.714 310.696V307.312C775.714 306.712 775.528 306.244 775.156 305.908C774.796 305.572 774.238 305.404 773.482 305.404C772.966 305.404 772.456 305.488 771.952 305.656C771.46 305.812 771.04 306.028 770.692 306.304L769.684 304.342C770.212 303.97 770.848 303.682 771.592 303.478C772.336 303.274 773.092 303.172 773.86 303.172C775.336 303.172 776.482 303.52 777.298 304.216C778.114 304.912 778.522 305.998 778.522 307.474V313H775.894ZM772.942 313.144C772.186 313.144 771.538 313.018 770.998 312.766C770.458 312.502 770.044 312.148 769.756 311.704C769.468 311.26 769.324 310.762 769.324 310.21C769.324 309.634 769.462 309.13 769.738 308.698C770.026 308.266 770.476 307.93 771.088 307.69C771.7 307.438 772.498 307.312 773.482 307.312H776.056V308.95H773.788C773.128 308.95 772.672 309.058 772.42 309.274C772.18 309.49 772.06 309.76 772.06 310.084C772.06 310.444 772.198 310.732 772.474 310.948C772.762 311.152 773.152 311.254 773.644 311.254C774.112 311.254 774.532 311.146 774.904 310.93C775.276 310.702 775.546 310.372 775.714 309.94L776.146 311.236C775.942 311.86 775.57 312.334 775.03 312.658C774.49 312.982 773.794 313.144 772.942 313.144ZM786.95 303.172C787.718 303.172 788.402 303.328 789.002 303.64C789.614 303.94 790.094 304.408 790.442 305.044C790.79 305.668 790.964 306.472 790.964 307.456V313H788.156V307.888C788.156 307.108 787.982 306.532 787.634 306.16C787.298 305.788 786.818 305.602 786.194 305.602C785.75 305.602 785.348 305.698 784.988 305.89C784.64 306.07 784.364 306.352 784.16 306.736C783.968 307.12 783.872 307.612 783.872 308.212V313H781.064V303.316H783.746V305.998L783.242 305.188C783.59 304.54 784.088 304.042 784.736 303.694C785.384 303.346 786.122 303.172 786.95 303.172ZM797.737 313.144C796.825 313.144 796.003 312.94 795.271 312.532C794.539 312.112 793.957 311.53 793.525 310.786C793.105 310.042 792.895 309.166 792.895 308.158C792.895 307.138 793.105 306.256 793.525 305.512C793.957 304.768 794.539 304.192 795.271 303.784C796.003 303.376 796.825 303.172 797.737 303.172C798.553 303.172 799.267 303.352 799.879 303.712C800.491 304.072 800.965 304.618 801.301 305.35C801.637 306.082 801.805 307.018 801.805 308.158C801.805 309.286 801.643 310.222 801.319 310.966C800.995 311.698 800.527 312.244 799.915 312.604C799.315 312.964 798.589 313.144 797.737 313.144ZM798.223 310.84C798.679 310.84 799.093 310.732 799.465 310.516C799.837 310.3 800.131 309.994 800.347 309.598C800.575 309.19 800.689 308.71 800.689 308.158C800.689 307.594 800.575 307.114 800.347 306.718C800.131 306.322 799.837 306.016 799.465 305.8C799.093 305.584 798.679 305.476 798.223 305.476C797.755 305.476 797.335 305.584 796.963 305.8C796.591 306.016 796.291 306.322 796.063 306.718C795.847 307.114 795.739 307.594 795.739 308.158C795.739 308.71 795.847 309.19 796.063 309.598C796.291 309.994 796.591 310.3 796.963 310.516C797.335 310.732 797.755 310.84 798.223 310.84ZM800.761 313V311.02L800.815 308.14L800.635 305.278V299.644H803.443V313H800.761ZM810.65 313.144C809.618 313.144 808.7 312.928 807.896 312.496C807.104 312.064 806.474 311.476 806.006 310.732C805.55 309.976 805.322 309.118 805.322 308.158C805.322 307.186 805.55 306.328 806.006 305.584C806.474 304.828 807.104 304.24 807.896 303.82C808.7 303.388 809.618 303.172 810.65 303.172C811.67 303.172 812.582 303.388 813.386 303.82C814.19 304.24 814.82 304.822 815.276 305.566C815.732 306.31 815.96 307.174 815.96 308.158C815.96 309.118 815.732 309.976 815.276 310.732C814.82 311.476 814.19 312.064 813.386 312.496C812.582 312.928 811.67 313.144 810.65 313.144ZM810.65 310.84C811.118 310.84 811.538 310.732 811.91 310.516C812.282 310.3 812.576 309.994 812.792 309.598C813.008 309.19 813.116 308.71 813.116 308.158C813.116 307.594 813.008 307.114 812.792 306.718C812.576 306.322 812.282 306.016 811.91 305.8C811.538 305.584 811.118 305.476 810.65 305.476C810.182 305.476 809.762 305.584 809.39 305.8C809.018 306.016 808.718 306.322 808.49 306.718C808.274 307.114 808.166 307.594 808.166 308.158C808.166 308.71 808.274 309.19 808.49 309.598C808.718 309.994 809.018 310.3 809.39 310.516C809.762 310.732 810.182 310.84 810.65 310.84ZM820.201 313L816.133 303.316H819.031L822.415 311.65H820.975L824.485 303.316H827.185L823.099 313H820.201ZM832.873 313.144C831.769 313.144 830.797 312.928 829.957 312.496C829.129 312.064 828.487 311.476 828.031 310.732C827.575 309.976 827.347 309.118 827.347 308.158C827.347 307.186 827.569 306.328 828.013 305.584C828.469 304.828 829.087 304.24 829.867 303.82C830.647 303.388 831.529 303.172 832.513 303.172C833.461 303.172 834.313 303.376 835.069 303.784C835.837 304.18 836.443 304.756 836.887 305.512C837.331 306.256 837.553 307.15 837.553 308.194C837.553 308.302 837.547 308.428 837.535 308.572C837.523 308.704 837.511 308.83 837.499 308.95H829.633V307.312H836.023L834.943 307.798C834.943 307.294 834.841 306.856 834.637 306.484C834.433 306.112 834.151 305.824 833.791 305.62C833.431 305.404 833.011 305.296 832.531 305.296C832.051 305.296 831.625 305.404 831.253 305.62C830.893 305.824 830.611 306.118 830.407 306.502C830.203 306.874 830.101 307.318 830.101 307.834V308.266C830.101 308.794 830.215 309.262 830.443 309.67C830.683 310.066 831.013 310.372 831.433 310.588C831.865 310.792 832.369 310.894 832.945 310.894C833.461 310.894 833.911 310.816 834.295 310.66C834.691 310.504 835.051 310.27 835.375 309.958L836.869 311.578C836.425 312.082 835.867 312.472 835.195 312.748C834.523 313.012 833.749 313.144 832.873 313.144ZM839.423 313V303.316H842.105V306.052L841.727 305.26C842.015 304.576 842.477 304.06 843.113 303.712C843.749 303.352 844.523 303.172 845.435 303.172V305.764C845.315 305.752 845.207 305.746 845.111 305.746C845.015 305.734 844.913 305.728 844.805 305.728C844.037 305.728 843.413 305.95 842.933 306.394C842.465 306.826 842.231 307.504 842.231 308.428V313H839.423Z" fill="#9E5DC7"/>
<path d="M782.501 45V32.4H787.955C789.083 32.4 790.055 32.586 790.871 32.958C791.687 33.318 792.317 33.84 792.761 34.524C793.205 35.208 793.427 36.024 793.427 36.972C793.427 37.908 793.205 38.718 792.761 39.402C792.317 40.086 791.687 40.614 790.871 40.986C790.055 41.346 789.083 41.526 787.955 41.526H784.121L785.417 40.212V45H782.501ZM785.417 40.536L784.121 39.15H787.793C788.693 39.15 789.365 38.958 789.809 38.574C790.253 38.19 790.475 37.656 790.475 36.972C790.475 36.276 790.253 35.736 789.809 35.352C789.365 34.968 788.693 34.776 787.793 34.776H784.121L785.417 33.39V40.536ZM799.901 45.144C798.869 45.144 797.951 44.928 797.147 44.496C796.355 44.064 795.725 43.476 795.257 42.732C794.801 41.976 794.573 41.118 794.573 40.158C794.573 39.186 794.801 38.328 795.257 37.584C795.725 36.828 796.355 36.24 797.147 35.82C797.951 35.388 798.869 35.172 799.901 35.172C800.921 35.172 801.833 35.388 802.637 35.82C803.441 36.24 804.071 36.822 804.527 37.566C804.983 38.31 805.211 39.174 805.211 40.158C805.211 41.118 804.983 41.976 804.527 42.732C804.071 43.476 803.441 44.064 802.637 44.496C801.833 44.928 800.921 45.144 799.901 45.144ZM799.901 42.84C800.369 42.84 800.789 42.732 801.161 42.516C801.533 42.3 801.827 41.994 802.043 41.598C802.259 41.19 802.367 40.71 802.367 40.158C802.367 39.594 802.259 39.114 802.043 38.718C801.827 38.322 801.533 38.016 801.161 37.8C800.789 37.584 800.369 37.476 799.901 37.476C799.433 37.476 799.013 37.584 798.641 37.8C798.269 38.016 797.969 38.322 797.741 38.718C797.525 39.114 797.417 39.594 797.417 40.158C797.417 40.71 797.525 41.19 797.741 41.598C797.969 41.994 798.269 42.3 798.641 42.516C799.013 42.732 799.433 42.84 799.901 42.84ZM813.316 45.216C812.344 45.216 811.438 45.06 810.598 44.748C809.77 44.424 809.05 43.968 808.438 43.38C807.826 42.792 807.346 42.102 806.998 41.31C806.662 40.518 806.494 39.648 806.494 38.7C806.494 37.752 806.662 36.882 806.998 36.09C807.346 35.298 807.826 34.608 808.438 34.02C809.062 33.432 809.788 32.982 810.616 32.67C811.444 32.346 812.35 32.184 813.334 32.184C814.426 32.184 815.41 32.376 816.286 32.76C817.174 33.132 817.918 33.684 818.518 34.416L816.646 36.144C816.214 35.652 815.734 35.286 815.206 35.046C814.678 34.794 814.102 34.668 813.478 34.668C812.89 34.668 812.35 34.764 811.858 34.956C811.366 35.148 810.94 35.424 810.58 35.784C810.22 36.144 809.938 36.57 809.734 37.062C809.542 37.554 809.446 38.1 809.446 38.7C809.446 39.3 809.542 39.846 809.734 40.338C809.938 40.83 810.22 41.256 810.58 41.616C810.94 41.976 811.366 42.252 811.858 42.444C812.35 42.636 812.89 42.732 813.478 42.732C814.102 42.732 814.678 42.612 815.206 42.372C815.734 42.12 816.214 41.742 816.646 41.238L818.518 42.966C817.918 43.698 817.174 44.256 816.286 44.64C815.41 45.024 814.42 45.216 813.316 45.216Z" fill="#33B1B8"/>
<path d="M1018.75 45V32.4H1021.16L1026.53 41.292H1025.25L1030.52 32.4H1032.92L1032.95 45H1030.22L1030.2 36.594H1030.7L1026.49 43.668H1025.18L1020.87 36.594H1021.49V45H1018.75ZM1039.67 45L1034.23 32.4H1037.38L1042.13 43.56H1040.28L1045.1 32.4H1048L1042.55 45H1039.67ZM1049.05 45V32.4H1054.51C1055.64 32.4 1056.61 32.586 1057.42 32.958C1058.24 33.318 1058.87 33.84 1059.31 34.524C1059.76 35.208 1059.98 36.024 1059.98 36.972C1059.98 37.908 1059.76 38.718 1059.31 39.402C1058.87 40.086 1058.24 40.614 1057.42 40.986C1056.61 41.346 1055.64 41.526 1054.51 41.526H1050.67L1051.97 40.212V45H1049.05ZM1051.97 40.536L1050.67 39.15H1054.35C1055.25 39.15 1055.92 38.958 1056.36 38.574C1056.81 38.19 1057.03 37.656 1057.03 36.972C1057.03 36.276 1056.81 35.736 1056.36 35.352C1055.92 34.968 1055.25 34.776 1054.35 34.776H1050.67L1051.97 33.39V40.536Z" fill="#33B1B8"/>
<path d="M1012.12 313.216C1011.12 313.216 1010.15 313.084 1009.23 312.82C1008.3 312.544 1007.56 312.19 1006.99 311.758L1007.98 309.562C1008.52 309.946 1009.16 310.264 1009.89 310.516C1010.64 310.756 1011.39 310.876 1012.14 310.876C1012.72 310.876 1013.18 310.822 1013.53 310.714C1013.89 310.594 1014.15 310.432 1014.32 310.228C1014.49 310.024 1014.57 309.79 1014.57 309.526C1014.57 309.19 1014.44 308.926 1014.18 308.734C1013.91 308.53 1013.56 308.368 1013.13 308.248C1012.7 308.116 1012.22 307.996 1011.69 307.888C1011.18 307.768 1010.65 307.624 1010.13 307.456C1009.61 307.288 1009.14 307.072 1008.7 306.808C1008.27 306.544 1007.92 306.196 1007.64 305.764C1007.38 305.332 1007.25 304.78 1007.25 304.108C1007.25 303.388 1007.44 302.734 1007.82 302.146C1008.22 301.546 1008.81 301.072 1009.59 300.724C1010.38 300.364 1011.37 300.184 1012.56 300.184C1013.35 300.184 1014.13 300.28 1014.9 300.472C1015.66 300.652 1016.34 300.928 1016.93 301.3L1016.03 303.514C1015.44 303.178 1014.85 302.932 1014.27 302.776C1013.68 302.608 1013.1 302.524 1012.54 302.524C1011.97 302.524 1011.51 302.59 1011.15 302.722C1010.79 302.854 1010.53 303.028 1010.38 303.244C1010.22 303.448 1010.14 303.688 1010.14 303.964C1010.14 304.288 1010.28 304.552 1010.54 304.756C1010.8 304.948 1011.15 305.104 1011.58 305.224C1012.02 305.344 1012.49 305.464 1013.01 305.584C1013.53 305.704 1014.06 305.842 1014.57 305.998C1015.1 306.154 1015.58 306.364 1016.01 306.628C1016.44 306.892 1016.79 307.24 1017.06 307.672C1017.33 308.104 1017.47 308.65 1017.47 309.31C1017.47 310.018 1017.27 310.666 1016.88 311.254C1016.48 311.842 1015.89 312.316 1015.09 312.676C1014.31 313.036 1013.32 313.216 1012.12 313.216ZM1023.35 313.144C1022.55 313.144 1021.83 312.988 1021.19 312.676C1020.57 312.364 1020.08 311.89 1019.73 311.254C1019.38 310.606 1019.21 309.784 1019.21 308.788V303.316H1022.02V308.374C1022.02 309.178 1022.19 309.772 1022.52 310.156C1022.87 310.528 1023.36 310.714 1023.98 310.714C1024.41 310.714 1024.8 310.624 1025.13 310.444C1025.47 310.252 1025.73 309.964 1025.92 309.58C1026.12 309.184 1026.21 308.692 1026.21 308.104V303.316H1029.02V313H1026.36V310.336L1026.84 311.11C1026.52 311.782 1026.04 312.292 1025.4 312.64C1024.78 312.976 1024.09 313.144 1023.35 313.144ZM1037.51 303.172C1038.28 303.172 1038.96 303.328 1039.56 303.64C1040.17 303.94 1040.65 304.408 1041 305.044C1041.35 305.668 1041.52 306.472 1041.52 307.456V313H1038.71V307.888C1038.71 307.108 1038.54 306.532 1038.19 306.16C1037.86 305.788 1037.38 305.602 1036.75 305.602C1036.31 305.602 1035.91 305.698 1035.55 305.89C1035.2 306.07 1034.92 306.352 1034.72 306.736C1034.53 307.12 1034.43 307.612 1034.43 308.212V313H1031.62V303.316H1034.3V305.998L1033.8 305.188C1034.15 304.54 1034.65 304.042 1035.29 303.694C1035.94 303.346 1036.68 303.172 1037.51 303.172ZM1047.32 313.144C1046.5 313.144 1045.7 313.048 1044.93 312.856C1044.17 312.652 1043.57 312.4 1043.13 312.1L1044.07 310.084C1044.51 310.36 1045.03 310.588 1045.63 310.768C1046.24 310.936 1046.84 311.02 1047.43 311.02C1048.08 311.02 1048.54 310.942 1048.8 310.786C1049.08 310.63 1049.21 310.414 1049.21 310.138C1049.21 309.91 1049.11 309.742 1048.89 309.634C1048.69 309.514 1048.41 309.424 1048.06 309.364C1047.71 309.304 1047.33 309.244 1046.91 309.184C1046.5 309.124 1046.09 309.046 1045.67 308.95C1045.25 308.842 1044.86 308.686 1044.52 308.482C1044.17 308.278 1043.89 308.002 1043.67 307.654C1043.47 307.306 1043.36 306.856 1043.36 306.304C1043.36 305.692 1043.54 305.152 1043.89 304.684C1044.25 304.216 1044.76 303.85 1045.43 303.586C1046.11 303.31 1046.91 303.172 1047.85 303.172C1048.51 303.172 1049.18 303.244 1049.86 303.388C1050.55 303.532 1051.12 303.742 1051.57 304.018L1050.64 306.016C1050.17 305.74 1049.69 305.554 1049.21 305.458C1048.75 305.35 1048.29 305.296 1047.85 305.296C1047.22 305.296 1046.77 305.38 1046.48 305.548C1046.19 305.716 1046.05 305.932 1046.05 306.196C1046.05 306.436 1046.15 306.616 1046.35 306.736C1046.57 306.856 1046.85 306.952 1047.2 307.024C1047.55 307.096 1047.92 307.162 1048.33 307.222C1048.75 307.27 1049.17 307.348 1049.59 307.456C1050.01 307.564 1050.39 307.72 1050.73 307.924C1051.07 308.116 1051.36 308.386 1051.57 308.734C1051.79 309.07 1051.9 309.514 1051.9 310.066C1051.9 310.666 1051.72 311.2 1051.36 311.668C1051 312.124 1050.47 312.484 1049.79 312.748C1049.12 313.012 1048.3 313.144 1047.32 313.144ZM1058.44 313.144C1057.33 313.144 1056.36 312.928 1055.52 312.496C1054.69 312.064 1054.05 311.476 1053.59 310.732C1053.14 309.976 1052.91 309.118 1052.91 308.158C1052.91 307.186 1053.13 306.328 1053.58 305.584C1054.03 304.828 1054.65 304.24 1055.43 303.82C1056.21 303.388 1057.09 303.172 1058.08 303.172C1059.02 303.172 1059.88 303.376 1060.63 303.784C1061.4 304.18 1062.01 304.756 1062.45 305.512C1062.89 306.256 1063.12 307.15 1063.12 308.194C1063.12 308.302 1063.11 308.428 1063.1 308.572C1063.09 308.704 1063.07 308.83 1063.06 308.95H1055.2V307.312H1061.59L1060.51 307.798C1060.51 307.294 1060.4 306.856 1060.2 306.484C1060 306.112 1059.71 305.824 1059.35 305.62C1058.99 305.404 1058.57 305.296 1058.09 305.296C1057.61 305.296 1057.19 305.404 1056.82 305.62C1056.46 305.824 1056.17 306.118 1055.97 306.502C1055.77 306.874 1055.66 307.318 1055.66 307.834V308.266C1055.66 308.794 1055.78 309.262 1056.01 309.67C1056.25 310.066 1056.58 310.372 1057 310.588C1057.43 310.792 1057.93 310.894 1058.51 310.894C1059.02 310.894 1059.47 310.816 1059.86 310.66C1060.25 310.504 1060.61 310.27 1060.94 309.958L1062.43 311.578C1061.99 312.082 1061.43 312.472 1060.76 312.748C1060.09 313.012 1059.31 313.144 1058.44 313.144ZM1068.94 313.144C1067.8 313.144 1066.92 312.856 1066.28 312.28C1065.64 311.692 1065.33 310.822 1065.33 309.67V301.174H1068.13V309.634C1068.13 310.042 1068.24 310.36 1068.46 310.588C1068.67 310.804 1068.97 310.912 1069.34 310.912C1069.78 310.912 1070.16 310.792 1070.47 310.552L1071.23 312.532C1070.94 312.736 1070.59 312.892 1070.19 313C1069.79 313.096 1069.38 313.144 1068.94 313.144ZM1063.83 305.692V303.532H1070.55V305.692H1063.83Z" fill="#9E5DC7"/>
<path fill-rule="evenodd" clip-rule="evenodd" d="M78 76H1080C1099.88 76 1116 92.1177 1116 112V152C1116 171.882 1099.88 188 1080 188H78V192H1080C1102.09 192 1120 174.091 1120 152V112C1120 89.9086 1102.09 72 1080 72H78V76Z" fill="url(#paint1_linear_1765_2204)"/>
<path fill-rule="evenodd" clip-rule="evenodd" d="M40 192H1080C1092.55 192 1103.61 198.426 1110.05 208.167H1114.74C1107.85 196.119 1094.87 188 1080 188H40C17.9086 188 0 205.909 0 228V304C0 326.091 17.9086 344 40 344H1042V340H40C20.1177 340 4 323.882 4 304V228C4 208.118 20.1178 192 40 192Z" fill="url(#paint2_linear_1765_2204)"/>
<path fill-rule="evenodd" clip-rule="evenodd" d="M82 188H78C78 210.091 95.9086 228 118 228H1002C1024.09 228 1042 210.091 1042 188H1038C1038 207.882 1021.88 224 1002 224H118C98.1177 224 82 207.882 82 188Z" fill="#1476F2"/>
<rect x="80" y="72" width="480" height="4" fill="url(#paint3_linear_1765_2204)"/>
<rect x="80" y="340" width="720" height="4" fill="url(#paint4_linear_1765_2204)"/>
<rect x="800" y="340" width="242" height="4" fill="#9E5DC7"/>
<g filter="url(#filter0_d_1765_2204)">
<circle cx="80" cy="342" r="16" fill="#4B3DDB"/>
</g>
<circle cx="80" cy="342" r="8" fill="white"/>
<g filter="url(#filter1_d_1765_2204)">
<circle cx="320" cy="342" r="16" fill="#4B3DDB"/>
</g>
<circle cx="320" cy="342" r="8" fill="white"/>
<g filter="url(#filter2_d_1765_2204)">
<circle cx="560" cy="342" r="16" fill="#4B3DDB"/>
</g>
<circle cx="560" cy="342" r="8" fill="white"/>
<g filter="url(#filter3_d_1765_2204)">
<circle cx="800" cy="342" r="16" fill="#9E5DC7"/>
</g>
<circle cx="800" cy="342" r="8" fill="white"/>
<g filter="url(#filter4_d_1765_2204)">
<circle cx="1040" cy="342" r="16" fill="#9E5DC7"/>
</g>
<circle cx="1040" cy="342" r="8" fill="white"/>
<g filter="url(#filter5_d_1765_2204)">
<circle cx="80" cy="74" r="16" fill="#5DC792"/>
</g>
<circle cx="80" cy="74" r="8" fill="white"/>
<g filter="url(#filter6_d_1765_2204)">
<circle cx="320" cy="74" r="16" fill="#5DC792"/>
</g>
<circle cx="320" cy="74" r="8" fill="white"/>
<g filter="url(#filter7_d_1765_2204)">
<circle cx="560" cy="74" r="16" fill="#33B1B8"/>
</g>
<circle cx="560" cy="74" r="8" fill="white"/>
<g filter="url(#filter8_d_1765_2204)">
<circle cx="800" cy="74" r="16" fill="#33B1B8"/>
</g>
<circle cx="800" cy="74" r="8" fill="white"/>
<g filter="url(#filter9_d_1765_2204)">
<circle cx="1040" cy="74" r="16" fill="#33B1B8"/>
</g>
<circle cx="1040" cy="74" r="8" fill="white"/>
<g filter="url(#filter10_d_1765_2204)">
<circle cx="80" cy="190" r="16" fill="#1476F2"/>
</g>
<circle cx="80" cy="190" r="8" fill="white"/>
<g filter="url(#filter11_d_1765_2204)">
<circle cx="320" cy="190" r="16" fill="#1476F2"/>
</g>
<circle cx="320" cy="190" r="8" fill="white"/>
<g filter="url(#filter12_d_1765_2204)">
<circle cx="560" cy="190" r="16" fill="#1476F2"/>
</g>
<circle cx="560" cy="190" r="8" fill="white"/>
<g filter="url(#filter13_d_1765_2204)">
<circle cx="800" cy="190" r="16" fill="#1476F2"/>
</g>
<circle cx="800" cy="190" r="8" fill="white"/>
<g filter="url(#filter14_d_1765_2204)">
<circle cx="1040" cy="190" r="16" fill="#1476F2"/>
</g>
<circle cx="1040" cy="190" r="8" fill="white"/>
<defs>
<filter id="filter0_d_1765_2204" x="58" y="320" width="44" height="44" filterUnits="userSpaceOnUse" color-interpolation-filters="sRGB">
<feFlood flood-opacity="0" result="BackgroundImageFix"/>
<feColorMatrix in="SourceAlpha" type="matrix" values="0 0 0 0 0 0 0 0 0 0 0 0 0 0 0 0 0 0 127 0" result="hardAlpha"/>
<feOffset/>
<feGaussianBlur stdDeviation="3"/>
<feColorMatrix type="matrix" values="0 0 0 0 0.630851 0 0 0 0 0.70444 0 0 0 0 0.745833 0 0 0 0.5 0"/>
<feBlend mode="normal" in2="BackgroundImageFix" result="effect1_dropShadow_1765_2204"/>
<feBlend mode="normal" in="SourceGraphic" in2="effect1_dropShadow_1765_2204" result="shape"/>
</filter>
<filter id="filter1_d_1765_2204" x="298" y="320" width="44" height="44" filterUnits="userSpaceOnUse" color-interpolation-filters="sRGB">
<feFlood flood-opacity="0" result="BackgroundImageFix"/>
<feColorMatrix in="SourceAlpha" type="matrix" values="0 0 0 0 0 0 0 0 0 0 0 0 0 0 0 0 0 0 127 0" result="hardAlpha"/>
<feOffset/>
<feGaussianBlur stdDeviation="3"/>
<feColorMatrix type="matrix" values="0 0 0 0 0.630851 0 0 0 0 0.70444 0 0 0 0 0.745833 0 0 0 0.5 0"/>
<feBlend mode="normal" in2="BackgroundImageFix" result="effect1_dropShadow_1765_2204"/>
<feBlend mode="normal" in="SourceGraphic" in2="effect1_dropShadow_1765_2204" result="shape"/>
</filter>
<filter id="filter2_d_1765_2204" x="538" y="320" width="44" height="44" filterUnits="userSpaceOnUse" color-interpolation-filters="sRGB">
<feFlood flood-opacity="0" result="BackgroundImageFix"/>
<feColorMatrix in="SourceAlpha" type="matrix" values="0 0 0 0 0 0 0 0 0 0 0 0 0 0 0 0 0 0 127 0" result="hardAlpha"/>
<feOffset/>
<feGaussianBlur stdDeviation="3"/>
<feColorMatrix type="matrix" values="0 0 0 0 0.630851 0 0 0 0 0.70444 0 0 0 0 0.745833 0 0 0 0.5 0"/>
<feBlend mode="normal" in2="BackgroundImageFix" result="effect1_dropShadow_1765_2204"/>
<feBlend mode="normal" in="SourceGraphic" in2="effect1_dropShadow_1765_2204" result="shape"/>
</filter>
<filter id="filter3_d_1765_2204" x="778" y="320" width="44" height="44" filterUnits="userSpaceOnUse" color-interpolation-filters="sRGB">
<feFlood flood-opacity="0" result="BackgroundImageFix"/>
<feColorMatrix in="SourceAlpha" type="matrix" values="0 0 0 0 0 0 0 0 0 0 0 0 0 0 0 0 0 0 127 0" result="hardAlpha"/>
<feOffset/>
<feGaussianBlur stdDeviation="3"/>
<feColorMatrix type="matrix" values="0 0 0 0 0.630851 0 0 0 0 0.70444 0 0 0 0 0.745833 0 0 0 0.5 0"/>
<feBlend mode="normal" in2="BackgroundImageFix" result="effect1_dropShadow_1765_2204"/>
<feBlend mode="normal" in="SourceGraphic" in2="effect1_dropShadow_1765_2204" result="shape"/>
</filter>
<filter id="filter4_d_1765_2204" x="1018" y="320" width="44" height="44" filterUnits="userSpaceOnUse" color-interpolation-filters="sRGB">
<feFlood flood-opacity="0" result="BackgroundImageFix"/>
<feColorMatrix in="SourceAlpha" type="matrix" values="0 0 0 0 0 0 0 0 0 0 0 0 0 0 0 0 0 0 127 0" result="hardAlpha"/>
<feOffset/>
<feGaussianBlur stdDeviation="3"/>
<feColorMatrix type="matrix" values="0 0 0 0 0.630851 0 0 0 0 0.70444 0 0 0 0 0.745833 0 0 0 0.5 0"/>
<feBlend mode="normal" in2="BackgroundImageFix" result="effect1_dropShadow_1765_2204"/>
<feBlend mode="normal" in="SourceGraphic" in2="effect1_dropShadow_1765_2204" result="shape"/>
</filter>
<filter id="filter5_d_1765_2204" x="58" y="52" width="44" height="44" filterUnits="userSpaceOnUse" color-interpolation-filters="sRGB">
<feFlood flood-opacity="0" result="BackgroundImageFix"/>
<feColorMatrix in="SourceAlpha" type="matrix" values="0 0 0 0 0 0 0 0 0 0 0 0 0 0 0 0 0 0 127 0" result="hardAlpha"/>
<feOffset/>
<feGaussianBlur stdDeviation="3"/>
<feColorMatrix type="matrix" values="0 0 0 0 0.630851 0 0 0 0 0.70444 0 0 0 0 0.745833 0 0 0 0.5 0"/>
<feBlend mode="normal" in2="BackgroundImageFix" result="effect1_dropShadow_1765_2204"/>
<feBlend mode="normal" in="SourceGraphic" in2="effect1_dropShadow_1765_2204" result="shape"/>
</filter>
<filter id="filter6_d_1765_2204" x="298" y="52" width="44" height="44" filterUnits="userSpaceOnUse" color-interpolation-filters="sRGB">
<feFlood flood-opacity="0" result="BackgroundImageFix"/>
<feColorMatrix in="SourceAlpha" type="matrix" values="0 0 0 0 0 0 0 0 0 0 0 0 0 0 0 0 0 0 127 0" result="hardAlpha"/>
<feOffset/>
<feGaussianBlur stdDeviation="3"/>
<feColorMatrix type="matrix" values="0 0 0 0 0.630851 0 0 0 0 0.70444 0 0 0 0 0.745833 0 0 0 0.5 0"/>
<feBlend mode="normal" in2="BackgroundImageFix" result="effect1_dropShadow_1765_2204"/>
<feBlend mode="normal" in="SourceGraphic" in2="effect1_dropShadow_1765_2204" result="shape"/>
</filter>
<filter id="filter7_d_1765_2204" x="538" y="52" width="44" height="44" filterUnits="userSpaceOnUse" color-interpolation-filters="sRGB">
<feFlood flood-opacity="0" result="BackgroundImageFix"/>
<feColorMatrix in="SourceAlpha" type="matrix" values="0 0 0 0 0 0 0 0 0 0 0 0 0 0 0 0 0 0 127 0" result="hardAlpha"/>
<feOffset/>
<feGaussianBlur stdDeviation="3"/>
<feColorMatrix type="matrix" values="0 0 0 0 0.630851 0 0 0 0 0.70444 0 0 0 0 0.745833 0 0 0 0.5 0"/>
<feBlend mode="normal" in2="BackgroundImageFix" result="effect1_dropShadow_1765_2204"/>
<feBlend mode="normal" in="SourceGraphic" in2="effect1_dropShadow_1765_2204" result="shape"/>
</filter>
<filter id="filter8_d_1765_2204" x="778" y="52" width="44" height="44" filterUnits="userSpaceOnUse" color-interpolation-filters="sRGB">
<feFlood flood-opacity="0" result="BackgroundImageFix"/>
<feColorMatrix in="SourceAlpha" type="matrix" values="0 0 0 0 0 0 0 0 0 0 0 0 0 0 0 0 0 0 127 0" result="hardAlpha"/>
<feOffset/>
<feGaussianBlur stdDeviation="3"/>
<feColorMatrix type="matrix" values="0 0 0 0 0.630851 0 0 0 0 0.70444 0 0 0 0 0.745833 0 0 0 0.5 0"/>
<feBlend mode="normal" in2="BackgroundImageFix" result="effect1_dropShadow_1765_2204"/>
<feBlend mode="normal" in="SourceGraphic" in2="effect1_dropShadow_1765_2204" result="shape"/>
</filter>
<filter id="filter9_d_1765_2204" x="1018" y="52" width="44" height="44" filterUnits="userSpaceOnUse" color-interpolation-filters="sRGB">
<feFlood flood-opacity="0" result="BackgroundImageFix"/>
<feColorMatrix in="SourceAlpha" type="matrix" values="0 0 0 0 0 0 0 0 0 0 0 0 0 0 0 0 0 0 127 0" result="hardAlpha"/>
<feOffset/>
<feGaussianBlur stdDeviation="3"/>
<feColorMatrix type="matrix" values="0 0 0 0 0.630851 0 0 0 0 0.70444 0 0 0 0 0.745833 0 0 0 0.5 0"/>
<feBlend mode="normal" in2="BackgroundImageFix" result="effect1_dropShadow_1765_2204"/>
<feBlend mode="normal" in="SourceGraphic" in2="effect1_dropShadow_1765_2204" result="shape"/>
</filter>
<filter id="filter10_d_1765_2204" x="58" y="168" width="44" height="44" filterUnits="userSpaceOnUse" color-interpolation-filters="sRGB">
<feFlood flood-opacity="0" result="BackgroundImageFix"/>
<feColorMatrix in="SourceAlpha" type="matrix" values="0 0 0 0 0 0 0 0 0 0 0 0 0 0 0 0 0 0 127 0" result="hardAlpha"/>
<feOffset/>
<feGaussianBlur stdDeviation="3"/>
<feColorMatrix type="matrix" values="0 0 0 0 0.630851 0 0 0 0 0.70444 0 0 0 0 0.745833 0 0 0 0.5 0"/>
<feBlend mode="normal" in2="BackgroundImageFix" result="effect1_dropShadow_1765_2204"/>
<feBlend mode="normal" in="SourceGraphic" in2="effect1_dropShadow_1765_2204" result="shape"/>
</filter>
<filter id="filter11_d_1765_2204" x="298" y="168" width="44" height="44" filterUnits="userSpaceOnUse" color-interpolation-filters="sRGB">
<feFlood flood-opacity="0" result="BackgroundImageFix"/>
<feColorMatrix in="SourceAlpha" type="matrix" values="0 0 0 0 0 0 0 0 0 0 0 0 0 0 0 0 0 0 127 0" result="hardAlpha"/>
<feOffset/>
<feGaussianBlur stdDeviation="3"/>
<feColorMatrix type="matrix" values="0 0 0 0 0.630851 0 0 0 0 0.70444 0 0 0 0 0.745833 0 0 0 0.5 0"/>
<feBlend mode="normal" in2="BackgroundImageFix" result="effect1_dropShadow_1765_2204"/>
<feBlend mode="normal" in="SourceGraphic" in2="effect1_dropShadow_1765_2204" result="shape"/>
</filter>
<filter id="filter12_d_1765_2204" x="538" y="168" width="44" height="44" filterUnits="userSpaceOnUse" color-interpolation-filters="sRGB">
<feFlood flood-opacity="0" result="BackgroundImageFix"/>
<feColorMatrix in="SourceAlpha" type="matrix" values="0 0 0 0 0 0 0 0 0 0 0 0 0 0 0 0 0 0 127 0" result="hardAlpha"/>
<feOffset/>
<feGaussianBlur stdDeviation="3"/>
<feColorMatrix type="matrix" values="0 0 0 0 0.630851 0 0 0 0 0.70444 0 0 0 0 0.745833 0 0 0 0.5 0"/>
<feBlend mode="normal" in2="BackgroundImageFix" result="effect1_dropShadow_1765_2204"/>
<feBlend mode="normal" in="SourceGraphic" in2="effect1_dropShadow_1765_2204" result="shape"/>
</filter>
<filter id="filter13_d_1765_2204" x="778" y="168" width="44" height="44" filterUnits="userSpaceOnUse" color-interpolation-filters="sRGB">
<feFlood flood-opacity="0" result="BackgroundImageFix"/>
<feColorMatrix in="SourceAlpha" type="matrix" values="0 0 0 0 0 0 0 0 0 0 0 0 0 0 0 0 0 0 127 0" result="hardAlpha"/>
<feOffset/>
<feGaussianBlur stdDeviation="3"/>
<feColorMatrix type="matrix" values="0 0 0 0 0.630851 0 0 0 0 0.70444 0 0 0 0 0.745833 0 0 0 0.5 0"/>
<feBlend mode="normal" in2="BackgroundImageFix" result="effect1_dropShadow_1765_2204"/>
<feBlend mode="normal" in="SourceGraphic" in2="effect1_dropShadow_1765_2204" result="shape"/>
</filter>
<filter id="filter14_d_1765_2204" x="1018" y="168" width="44" height="44" filterUnits="userSpaceOnUse" color-interpolation-filters="sRGB">
<feFlood flood-opacity="0" result="BackgroundImageFix"/>
<feColorMatrix in="SourceAlpha" type="matrix" values="0 0 0 0 0 0 0 0 0 0 0 0 0 0 0 0 0 0 127 0" result="hardAlpha"/>
<feOffset/>
<feGaussianBlur stdDeviation="3"/>
<feColorMatrix type="matrix" values="0 0 0 0 0.630851 0 0 0 0 0.70444 0 0 0 0 0.745833 0 0 0 0.5 0"/>
<feBlend mode="normal" in2="BackgroundImageFix" result="effect1_dropShadow_1765_2204"/>
<feBlend mode="normal" in="SourceGraphic" in2="effect1_dropShadow_1765_2204" result="shape"/>
</filter>
<linearGradient id="paint0_linear_1765_2204" x1="595.995" y1="112.364" x2="595.995" y2="333.455" gradientUnits="userSpaceOnUse">
<stop stop-color="#1476F2"/>
<stop offset="1" stop-color="#4B3DDB"/>
</linearGradient>
<linearGradient id="paint1_linear_1765_2204" x1="599" y1="72" x2="599" y2="192" gradientUnits="userSpaceOnUse">
<stop stop-color="#33B1B8"/>
<stop offset="1" stop-color="#1476F2"/>
</linearGradient>
<linearGradient id="paint2_linear_1765_2204" x1="521.754" y1="169.091" x2="521.754" y2="306.182" gradientUnits="userSpaceOnUse">
<stop stop-color="#1476F2"/>
<stop offset="1" stop-color="#4B3DDB"/>
</linearGradient>
<linearGradient id="paint3_linear_1765_2204" x1="320" y1="72" x2="560" y2="72" gradientUnits="userSpaceOnUse">
<stop stop-color="#5DC792"/>
<stop offset="1" stop-color="#33B1B8"/>
</linearGradient>
<linearGradient id="paint4_linear_1765_2204" x1="558.5" y1="341.999" x2="800" y2="341.999" gradientUnits="userSpaceOnUse">
<stop stop-color="#4B3DDB"/>
<stop offset="1" stop-color="#9E5DC7"/>
</linearGradient>
</defs>
</svg>
