<svg xmlns="http://www.w3.org/2000/svg" viewBox="0 0 512 512" id="presentation"><path d="M477.856 333.05h-5.379V67.462h5.379c14.416 0 26.144-11.728 26.144-26.144 0-14.416-11.728-26.144-26.144-26.144H34.144C19.728 15.174 8 26.902 8 41.318c0 14.416 11.728 26.144 26.144 26.144h5.379V333.05h-5.379C19.728 333.05 8 344.778 8 359.194c0 14.416 11.728 26.144 26.144 26.144h213.855v48.45c-13.799 3.562-24.023 16.116-24.023 31.013 0 17.658 14.366 32.024 32.024 32.024 17.659 0 32.025-14.366 32.025-32.024 0-14.898-10.225-27.452-24.026-31.014v-48.45h213.857c14.416 0 26.144-11.728 26.144-26.144 0-14.415-11.728-26.143-26.144-26.143zM272.025 464.801c0 8.836-7.188 16.024-16.025 16.024-8.836 0-16.024-7.188-16.024-16.024s7.188-16.025 16.024-16.025c8.837 0 16.025 7.189 16.025 16.025zM24 41.318c0-5.593 4.551-10.144 10.144-10.144h443.713c5.593 0 10.144 4.55 10.144 10.144s-4.551 10.144-10.144 10.144H34.144C28.551 51.462 24 46.911 24 41.318zm31.522 26.144h400.955V333.05H55.522V67.462zm422.334 301.876H34.144c-5.593 0-10.144-4.551-10.144-10.144s4.551-10.144 10.144-10.144h443.713c5.593 0 10.144 4.55 10.144 10.144s-4.552 10.144-10.145 10.144zm-69.648-220.459a8 8 0 0 1-8 8H213.936a8 8 0 0 1 0-16h186.272a8 8 0 0 1 8 8zm-202.272-44.69a8 8 0 0 1 8-8h186.272a8 8 0 0 1 0 16H213.936a8 8 0 0 1-8-8zm-25.79-5.376a7.999 7.999 0 0 1-.548 11.301l-44.223 40.133a7.975 7.975 0 0 1-5.375 2.076 7.98 7.98 0 0 1-5.658-2.343l-18.208-18.208a8 8 0 1 1 11.314-11.313l12.818 12.818 38.579-35.011a8.002 8.002 0 0 1 11.301.547zm0 76a7.999 7.999 0 0 1-.548 11.301l-44.223 40.133a7.975 7.975 0 0 1-5.375 2.076 7.98 7.98 0 0 1-5.658-2.343l-18.208-18.208a8 8 0 1 1 11.314-11.313l12.818 12.818 38.579-35.012a8.003 8.003 0 0 1 11.301.548zm0 76.001a7.999 7.999 0 0 1-.548 11.301l-44.223 40.133a7.975 7.975 0 0 1-5.375 2.076 7.98 7.98 0 0 1-5.658-2.343l-18.208-18.208a8 8 0 1 1 11.314-11.313l12.818 12.818 38.579-35.011a8 8 0 0 1 11.301.547zm228.062-57.246a8 8 0 0 1-8 8H213.936a8 8 0 0 1 0-16h186.272a8 8 0 0 1 8 8zm0 44.689a8 8 0 0 1-8 8H213.936a8 8 0 0 1 0-16h186.272a8 8 0 0 1 8 8zm0 44.688a8 8 0 0 1-8 8H213.936a8 8 0 0 1 0-16h186.272a8 8 0 0 1 8 8z"></path></svg>