<svg xmlns="http://www.w3.org/2000/svg" enable-background="new 0 0 48 48" viewBox="0 0 48 48" id="service"><path d="M20.3 33.3c0-1.3-.5-2.5-1.4-3.5l-6.2-6.2c-.3-.3-.8-.4-1.2-.3-.4.1-.8.5-.9 1-.2 1-.7 3.2-.2 5l.1.2 2.2 2.2-.7.1c-1 0-1.9-.4-2.6-1.1l-2.6-2.6v-6.1c0-1.8-1.1-3.4-2.7-4.1-.8-.3-1.7-.5-2.5-.5h-1v12.2c0 1 .4 1.9 1.1 2.6l7.2 7.2v.3H6.2v7.6h16.4v-7.6h-2.3V33.3zM3 30.9c-.3-.3-.5-.7-.5-1.2V19.6c.2.1.5.1.7.2.9.4 1.5 1.3 1.5 2.2V29l3.2 3.2c1.1 1.1 2.6 1.7 4.1 1.7l2.5-.4c.4-.1.8-.4.9-.8.1-.4 0-.9-.3-1.2l-3-3c-.2-.8-.1-1.7 0-2.5l5.2 5.2c.6.6.9 1.3.9 2.1v6.6h-7.5v-.3c0-.6-.2-1.1-.6-1.5L3 30.9zM20.5 41.9v3.6H8.2v-3.6h.6 11.5H20.5zM44 18c-1.6.7-2.7 2.3-2.7 4.1v6.1l-2.6 2.6c-.7.7-1.6 1.1-2.6 1.1l-.7-.1 2.2-2.2.1-.2c.5-1.9.1-4-.2-5.1-.1-.4-.4-.8-.9-.9-.4-.1-.9 0-1.2.3l-6.2 6.2c-.9.9-1.4 2.2-1.4 3.5v6.6h-2.3v7.6h16.4v-7.6h-2.6l0-.4 7.2-7.2c.7-.7 1.1-1.6 1.1-2.6V17.5h-1C45.6 17.5 44.8 17.7 44 18zM39.8 41.9v3.6H27.5v-3.6h.3 11.5H39.8zM45.5 29.7c0 .5-.2.9-.5 1.2l-7.2 7.2c-.4.4-.6.9-.6 1.5v.3h-7.5v-6.6c0-.8.3-1.5.9-2.1l5.2-5.2c.1.8.2 1.7 0 2.5l-3 3c-.3.3-.4.8-.3 1.2.1.4.5.7.9.8l2.4.4.2 0c1.6 0 3-.6 4.1-1.7l3.2-3.2v-6.9c0-1 .6-1.9 1.5-2.2.2-.1.5-.2.7-.2V29.7zM24.3 7.1c-3.6-.2-6.6 2.6-6.8 6.2-.1 1.7.5 3.4 1.7 4.7 1.2 1.3 2.8 2 4.5 2.1.1 0 .2 0 .3 0 3.4 0 6.3-2.7 6.5-6.2C30.7 10.3 27.9 7.3 24.3 7.1zM23.8 18.1c-1.2-.1-2.3-.6-3.1-1.5-.8-.9-1.2-2-1.2-3.2.1-2.4 2.1-4.3 4.5-4.3.1 0 .2 0 .2 0 2.5.1 4.4 2.2 4.3 4.7C28.4 16.3 26.3 18.2 23.8 18.1z"></path><path d="M37.1,15.7l0-4.4l-2.6-0.6c-0.2-0.9-0.6-1.7-1.1-2.6l1.4-2.3l-3.2-3.1l-2.3,1.4c-0.8-0.5-1.7-0.8-2.6-1l-0.6-2.6l-4.4,0
		l-0.6,2.6c-0.9,0.2-1.7,0.6-2.6,1.1l-2.3-1.4L13.2,6l1.4,2.3c-0.5,0.8-0.8,1.7-1.1,2.6l-2.6,0.6l0,4.4l2.6,0.6
		c0.2,0.9,0.6,1.7,1.1,2.6l-1.4,2.3l3.2,3.1l2.3-1.4c0.8,0.5,1.7,0.8,2.6,1l0.6,2.6l4.4,0l0.6-2.6c0.9-0.2,1.7-0.6,2.6-1.1l2.3,1.4
		l3.1-3.2l-1.4-2.3c0.5-0.8,0.8-1.7,1-2.6L37.1,15.7z M32.8,14.7l-0.1,0.6c-0.2,1.1-0.6,2.1-1.2,3.1l-0.3,0.5l1.2,2l-0.9,0.9l-2-1.2
		l-0.5,0.4c-0.9,0.6-2,1.1-3,1.3l-0.6,0.1l-0.5,2.3l-1.3,0l-0.6-2.3l-0.6-0.1c-1.1-0.2-2.1-0.6-3.1-1.2l-0.5-0.3l-2,1.2L15.8,21
		l1.2-2l-0.4-0.5c-0.6-0.9-1.1-2-1.3-3l-0.1-0.6l-2.3-0.5l0-1.3l2.3-0.6l0.1-0.6c0.2-1.1,0.6-2.1,1.2-3.1l0.3-0.5l-1.2-2l0.9-0.9
		l2,1.2l0.5-0.4c0.9-0.6,2-1.1,3-1.3l0.6-0.1l0.5-2.3l1.3,0l0.6,2.3l0.6,0.1c1.1,0.2,2.1,0.6,3.1,1.2l0.5,0.3l2-1.2l0.9,0.9l-1.2,2
		l0.4,0.5c0.6,0.9,1.1,2,1.3,3l0.1,0.6l2.3,0.5l0,1.3L32.8,14.7z"></path></svg>